G04 PROTEUS RS274X GERBER FILE*
%FSLAX45Y45*%
%MOMM*%
G01*
%ADD17C,0.203200*%
%ADD71C,0.120000*%
%ADD20C,0.200000*%
D17*
X-3649980Y+2334260D02*
X-4665980Y+2334260D01*
X-3649980Y+1318260D02*
X-4665980Y+1318260D01*
X-4665980Y+2334260D02*
X-4665980Y+1318260D01*
X-3649980Y+2334260D02*
X-3649980Y+1318260D01*
X-3675900Y+1481010D02*
X-3675900Y+1385760D01*
X-3767340Y+1385760D01*
X-3767340Y+1481010D01*
X-3721620Y+1385760D02*
X-3721620Y+1449260D01*
X-3675900Y+1512760D02*
X-3767340Y+1512760D01*
X-3675900Y+1608010D01*
X-3767340Y+1608010D01*
X-3767340Y+1639760D02*
X-3767340Y+1735010D01*
X-3767340Y+1687385D02*
X-3675900Y+1687385D01*
X-3675900Y+1766760D02*
X-3767340Y+1766760D01*
X-3767340Y+1846135D01*
X-3752100Y+1862010D01*
X-3736860Y+1862010D01*
X-3721620Y+1846135D01*
X-3721620Y+1766760D01*
X-3721620Y+1846135D02*
X-3706380Y+1862010D01*
X-3675900Y+1862010D01*
X-3675900Y+1893760D02*
X-3736860Y+1893760D01*
X-3767340Y+1925510D01*
X-3767340Y+1957260D01*
X-3736860Y+1989010D01*
X-3675900Y+1989010D01*
X-3706380Y+1893760D02*
X-3706380Y+1989010D01*
X-3675900Y+2020760D02*
X-3767340Y+2020760D01*
X-3767340Y+2084260D01*
X-3736860Y+2116010D01*
X-3706380Y+2116010D01*
X-3675900Y+2084260D01*
X-3675900Y+2020760D01*
X-3675900Y+2147760D02*
X-3736860Y+2147760D01*
X-3767340Y+2179510D01*
X-3767340Y+2211260D01*
X-3736860Y+2243010D01*
X-3675900Y+2243010D01*
X-3706380Y+2147760D02*
X-3706380Y+2243010D01*
X-2786920Y+1404620D02*
X-2794436Y+1378744D01*
X-2816090Y+1354772D01*
X-2850544Y+1333182D01*
X-2896458Y+1314450D01*
X-2952492Y+1299051D01*
X-3017306Y+1287462D01*
X-3089562Y+1280160D01*
X-3167920Y+1277620D01*
X-3548920Y+1404620D02*
X-3541300Y+1378744D01*
X-3519392Y+1354772D01*
X-3484626Y+1333182D01*
X-3438430Y+1314450D01*
X-3382232Y+1299051D01*
X-3317462Y+1287462D01*
X-3245549Y+1280160D01*
X-3167920Y+1277620D01*
X-3548920Y+1404620D02*
X-3541300Y+1430496D01*
X-3519392Y+1454468D01*
X-3484626Y+1476058D01*
X-3438430Y+1494790D01*
X-3382232Y+1510189D01*
X-3317462Y+1521778D01*
X-3245549Y+1529080D01*
X-3167920Y+1531620D01*
X-2786920Y+1404620D02*
X-2794436Y+1430496D01*
X-2816090Y+1454468D01*
X-2850544Y+1476058D01*
X-2896458Y+1494790D01*
X-2952492Y+1510189D01*
X-3017306Y+1521778D01*
X-3089562Y+1529080D01*
X-3167920Y+1531620D01*
X-2945670Y+976940D02*
X-2961545Y+961700D01*
X-3009170Y+961700D01*
X-3040920Y+992180D01*
X-3040920Y+1022660D01*
X-3009170Y+1053140D01*
X-2961545Y+1053140D01*
X-2945670Y+1037900D01*
X-2882170Y+1022660D02*
X-2850420Y+1053140D01*
X-2850420Y+961700D01*
X-3302000Y+485140D02*
X-2794000Y+485140D01*
X-2794000Y+739140D01*
X-3302000Y+739140D01*
X-3302000Y+485140D01*
X-3238500Y+353060D02*
X-3238500Y+444500D01*
X-3159125Y+444500D01*
X-3143250Y+429260D01*
X-3143250Y+414020D01*
X-3159125Y+398780D01*
X-3238500Y+398780D01*
X-3111500Y+444500D02*
X-3111500Y+368300D01*
X-3095625Y+353060D01*
X-3032125Y+353060D01*
X-3016250Y+368300D01*
X-3016250Y+444500D01*
X-2984500Y+444500D02*
X-2984500Y+353060D01*
X-2889250Y+353060D01*
X-3657600Y-911860D02*
X-3784600Y-911860D01*
X-3784600Y+104140D01*
X-3276600Y+104140D01*
X-3276600Y-911860D01*
X-3403600Y-911860D01*
X-3530600Y-784860D02*
X-3556476Y-787296D01*
X-3580448Y-794345D01*
X-3602038Y-805622D01*
X-3620770Y-820738D01*
X-3636169Y-839306D01*
X-3647758Y-860941D01*
X-3655060Y-885254D01*
X-3657600Y-911860D01*
X-3530600Y-784860D02*
X-3503994Y-787296D01*
X-3479681Y-794345D01*
X-3458046Y-805622D01*
X-3439478Y-820738D01*
X-3424362Y-839306D01*
X-3413085Y-860941D01*
X-3406036Y-885254D01*
X-3403600Y-911860D01*
X-3657600Y-952500D02*
X-3657600Y-1028700D01*
X-3641725Y-1043940D01*
X-3578225Y-1043940D01*
X-3562350Y-1028700D01*
X-3562350Y-952500D01*
X-3498850Y-982980D02*
X-3467100Y-952500D01*
X-3467100Y-1043940D01*
X-4455160Y+162560D02*
X-4201160Y+162560D01*
X-4201160Y+924560D01*
X-4455160Y+924560D01*
X-4455160Y+162560D01*
X-4069080Y+353060D02*
X-4160520Y+353060D01*
X-4160520Y+432435D01*
X-4145280Y+448310D01*
X-4130040Y+448310D01*
X-4114800Y+432435D01*
X-4114800Y+353060D01*
X-4114800Y+432435D02*
X-4099560Y+448310D01*
X-4069080Y+448310D01*
X-4160520Y+480060D02*
X-4114800Y+480060D01*
X-4069080Y+527685D01*
X-4114800Y+575310D01*
X-4160520Y+575310D01*
X-4130040Y+638810D02*
X-4160520Y+670560D01*
X-4069080Y+670560D01*
X-4338320Y-1003300D02*
X-4338320Y-876300D01*
X-4401820Y-876300D02*
X-4274820Y-876300D01*
X-4274820Y-368300D01*
X-4401820Y-368300D01*
X-4401820Y-876300D01*
X-4338320Y-368300D02*
X-4338320Y-241300D01*
X-4442460Y-749300D02*
X-4533900Y-749300D01*
X-4533900Y-669925D01*
X-4518660Y-654050D01*
X-4503420Y-654050D01*
X-4488180Y-669925D01*
X-4488180Y-749300D01*
X-4488180Y-669925D02*
X-4472940Y-654050D01*
X-4442460Y-654050D01*
X-4518660Y-606425D02*
X-4533900Y-590550D01*
X-4533900Y-542925D01*
X-4518660Y-527050D01*
X-4503420Y-527050D01*
X-4488180Y-542925D01*
X-4488180Y-590550D01*
X-4472940Y-606425D01*
X-4442460Y-606425D01*
X-4442460Y-527050D01*
D71*
X-2455100Y-687400D02*
X-2455915Y-667229D01*
X-2462534Y-626886D01*
X-2476347Y-586543D01*
X-2498793Y-546200D01*
X-2533090Y-505982D01*
X-2573433Y-474882D01*
X-2613776Y-454677D01*
X-2654119Y-442653D01*
X-2694462Y-437626D01*
X-2705100Y-437400D01*
X-2955100Y-687400D02*
X-2954285Y-667229D01*
X-2947666Y-626886D01*
X-2933853Y-586543D01*
X-2911407Y-546200D01*
X-2877110Y-505982D01*
X-2836767Y-474882D01*
X-2796424Y-454677D01*
X-2756081Y-442653D01*
X-2715738Y-437626D01*
X-2705100Y-437400D01*
X-2955100Y-687400D02*
X-2954285Y-707571D01*
X-2947666Y-747914D01*
X-2933853Y-788257D01*
X-2911407Y-828600D01*
X-2877110Y-868818D01*
X-2836767Y-899918D01*
X-2796424Y-920123D01*
X-2756081Y-932147D01*
X-2715738Y-937174D01*
X-2705100Y-937400D01*
X-2455100Y-687400D02*
X-2455915Y-707571D01*
X-2462534Y-747914D01*
X-2476347Y-788257D01*
X-2498793Y-828600D01*
X-2533090Y-868818D01*
X-2573433Y-899918D01*
X-2613776Y-920123D01*
X-2654119Y-932147D01*
X-2694462Y-937174D01*
X-2705100Y-937400D01*
D20*
X-2496100Y-488400D02*
X-2496135Y-487569D01*
X-2496416Y-485905D01*
X-2497006Y-484241D01*
X-2497970Y-482577D01*
X-2499445Y-480936D01*
X-2501109Y-479735D01*
X-2502773Y-478970D01*
X-2504437Y-478539D01*
X-2506100Y-478400D01*
X-2516100Y-488400D02*
X-2516065Y-487569D01*
X-2515784Y-485905D01*
X-2515194Y-484241D01*
X-2514230Y-482577D01*
X-2512755Y-480936D01*
X-2511091Y-479735D01*
X-2509427Y-478970D01*
X-2507763Y-478539D01*
X-2506100Y-478400D01*
X-2516100Y-488400D02*
X-2516065Y-489231D01*
X-2515784Y-490895D01*
X-2515194Y-492559D01*
X-2514230Y-494223D01*
X-2512755Y-495864D01*
X-2511091Y-497065D01*
X-2509427Y-497830D01*
X-2507763Y-498261D01*
X-2506100Y-498400D01*
X-2496100Y-488400D02*
X-2496135Y-489231D01*
X-2496416Y-490895D01*
X-2497006Y-492559D01*
X-2497970Y-494223D01*
X-2499445Y-495864D01*
X-2501109Y-497065D01*
X-2502773Y-497830D01*
X-2504437Y-498261D01*
X-2506100Y-498400D01*
D17*
X-2342420Y-719150D02*
X-2327180Y-735025D01*
X-2327180Y-782650D01*
X-2357660Y-814400D01*
X-2388140Y-814400D01*
X-2418620Y-782650D01*
X-2418620Y-735025D01*
X-2403380Y-719150D01*
X-2403380Y-671525D02*
X-2418620Y-655650D01*
X-2418620Y-608025D01*
X-2403380Y-592150D01*
X-2388140Y-592150D01*
X-2372900Y-608025D01*
X-2372900Y-655650D01*
X-2357660Y-671525D01*
X-2327180Y-671525D01*
X-2327180Y-592150D01*
X-2001520Y+154940D02*
X-2128520Y+154940D01*
X-2636520Y+91440D02*
X-2128520Y+91440D01*
X-2128520Y+218440D01*
X-2636520Y+218440D01*
X-2636520Y+91440D01*
X-2636520Y+154940D02*
X-2763520Y+154940D01*
X-2509520Y-40640D02*
X-2509520Y+50800D01*
X-2430145Y+50800D01*
X-2414270Y+35560D01*
X-2414270Y+20320D01*
X-2430145Y+5080D01*
X-2509520Y+5080D01*
X-2430145Y+5080D02*
X-2414270Y-10160D01*
X-2414270Y-40640D01*
X-2366645Y+35560D02*
X-2350770Y+50800D01*
X-2303145Y+50800D01*
X-2287270Y+35560D01*
X-2287270Y+20320D01*
X-2303145Y+5080D01*
X-2287270Y-10160D01*
X-2287270Y-25400D01*
X-2303145Y-40640D01*
X-2350770Y-40640D01*
X-2366645Y-25400D01*
X-2334895Y+5080D02*
X-2303145Y+5080D01*
X-2448560Y+393700D02*
X-1940560Y+393700D01*
X-2524760Y+558800D02*
X-2519998Y+520502D01*
X-2505710Y+481012D01*
X-2481898Y+439142D01*
X-2448560Y+393700D01*
X-2524760Y+558800D02*
X-2522129Y+623718D01*
X-2505648Y+683753D01*
X-2476721Y+737742D01*
X-2436753Y+784522D01*
X-2387148Y+822931D01*
X-2329311Y+851805D01*
X-2264647Y+869983D01*
X-2194560Y+876300D01*
X-1864360Y+558800D02*
X-1869122Y+520502D01*
X-1883410Y+481012D01*
X-1907222Y+439142D01*
X-1940560Y+393700D01*
X-1864360Y+558800D02*
X-1866991Y+623718D01*
X-1883472Y+683753D01*
X-1912399Y+737742D01*
X-1952367Y+784522D01*
X-2001972Y+822931D01*
X-2059809Y+851805D01*
X-2124473Y+869983D01*
X-2194560Y+876300D01*
X-2321560Y+977900D02*
X-2289810Y+1008380D01*
X-2258060Y+1008380D01*
X-2226310Y+977900D01*
X-2226310Y+947420D01*
X-2258060Y+916940D01*
X-2289810Y+916940D01*
X-2321560Y+947420D01*
X-2321560Y+977900D01*
X-2258060Y+947420D02*
X-2226310Y+916940D01*
X-2162810Y+977900D02*
X-2131060Y+1008380D01*
X-2131060Y+916940D01*
X-1717040Y+749300D02*
X-1450340Y+749300D01*
X-1450340Y+1267460D01*
X-1717040Y+1267460D01*
X-1717040Y+749300D01*
X-1452880Y+1186180D02*
X-1714500Y+1186180D01*
X-1584960Y+1338580D02*
X-1584960Y+1267460D01*
X-1584960Y+749300D02*
X-1584960Y+678180D01*
X-1318260Y+881380D02*
X-1409700Y+881380D01*
X-1409700Y+944880D01*
X-1379220Y+976630D01*
X-1348740Y+976630D01*
X-1318260Y+944880D01*
X-1318260Y+881380D01*
X-1394460Y+1024255D02*
X-1409700Y+1040130D01*
X-1409700Y+1087755D01*
X-1394460Y+1103630D01*
X-1379220Y+1103630D01*
X-1363980Y+1087755D01*
X-1348740Y+1103630D01*
X-1333500Y+1103630D01*
X-1318260Y+1087755D01*
X-1318260Y+1040130D01*
X-1333500Y+1024255D01*
X-1363980Y+1056005D02*
X-1363980Y+1087755D01*
X-1294800Y+155000D02*
X+405200Y+155000D01*
X+405200Y+2305000D01*
X-1294800Y+2305000D01*
X-1294800Y+155000D01*
X+537280Y+1039500D02*
X+445840Y+1039500D01*
X+445840Y+1118875D01*
X+461080Y+1134750D01*
X+476320Y+1134750D01*
X+491560Y+1118875D01*
X+491560Y+1039500D01*
X+491560Y+1118875D02*
X+506800Y+1134750D01*
X+537280Y+1134750D01*
X+445840Y+1166500D02*
X+537280Y+1166500D01*
X+537280Y+1261750D01*
X+476320Y+1325250D02*
X+445840Y+1357000D01*
X+537280Y+1357000D01*
X-457200Y-142240D02*
X-476250Y-162560D01*
X-533400Y-162560D01*
X-571500Y-121920D01*
X-571500Y-81280D01*
X-533400Y-40640D01*
X-476250Y-40640D01*
X-457200Y-60960D01*
X-419100Y-81280D02*
X-381000Y-40640D01*
X-342900Y-40640D01*
X-304800Y-81280D01*
X-304800Y-121920D01*
X-342900Y-162560D01*
X-381000Y-162560D01*
X-419100Y-121920D01*
X-419100Y-81280D01*
X-266700Y-162560D02*
X-266700Y-40640D01*
X-209550Y-101600D01*
X-152400Y-40640D01*
X-152400Y-162560D01*
X-1143000Y-162560D02*
X-1143000Y-40640D01*
X-1028700Y-162560D01*
X-1028700Y-40640D01*
X-876300Y-142240D02*
X-895350Y-162560D01*
X-952500Y-162560D01*
X-990600Y-121920D01*
X-990600Y-81280D01*
X-952500Y-40640D01*
X-895350Y-40640D01*
X-876300Y-60960D01*
X+63500Y-162560D02*
X+63500Y-40640D01*
X+177800Y-162560D01*
X+177800Y-40640D01*
X+215900Y-81280D02*
X+254000Y-40640D01*
X+292100Y-40640D01*
X+330200Y-81280D01*
X+330200Y-121920D01*
X+292100Y-162560D01*
X+254000Y-162560D01*
X+215900Y-121920D01*
X+215900Y-81280D01*
X-5080000Y-2032000D02*
X+889000Y-2032000D01*
X-5080000Y-2032000D02*
X-4953000Y-2159000D01*
X-5080000Y-2032000D02*
X-4953000Y-1905000D01*
X+889000Y-2032000D02*
X+762000Y-1905000D01*
X+889000Y-2032000D02*
X+762000Y-2159000D01*
X-2063750Y-2032000D02*
X-2063859Y-2029366D01*
X-2064749Y-2024097D01*
X-2066611Y-2018828D01*
X-2069654Y-2013559D01*
X-2074309Y-2008357D01*
X-2079578Y-2004531D01*
X-2084847Y-2002091D01*
X-2090116Y-2000710D01*
X-2095385Y-2000250D01*
X-2095500Y-2000250D01*
X-2127250Y-2032000D02*
X-2127141Y-2029366D01*
X-2126251Y-2024097D01*
X-2124389Y-2018828D01*
X-2121346Y-2013559D01*
X-2116691Y-2008357D01*
X-2111422Y-2004531D01*
X-2106153Y-2002091D01*
X-2100884Y-2000710D01*
X-2095615Y-2000250D01*
X-2095500Y-2000250D01*
X-2127250Y-2032000D02*
X-2127141Y-2034634D01*
X-2126251Y-2039903D01*
X-2124389Y-2045172D01*
X-2121346Y-2050441D01*
X-2116691Y-2055643D01*
X-2111422Y-2059469D01*
X-2106153Y-2061909D01*
X-2100884Y-2063290D01*
X-2095615Y-2063750D01*
X-2095500Y-2063750D01*
X-2063750Y-2032000D02*
X-2063859Y-2034634D01*
X-2064749Y-2039903D01*
X-2066611Y-2045172D01*
X-2069654Y-2050441D01*
X-2074309Y-2055643D01*
X-2079578Y-2059469D01*
X-2084847Y-2061909D01*
X-2090116Y-2063290D01*
X-2095385Y-2063750D01*
X-2095500Y-2063750D01*
X-2381250Y-1899920D02*
X-2460625Y-1899920D01*
X-2460625Y-1930400D01*
X-2397125Y-1930400D01*
X-2381250Y-1945640D01*
X-2381250Y-1976120D01*
X-2397125Y-1991360D01*
X-2444750Y-1991360D01*
X-2460625Y-1976120D01*
X-2301875Y-1976120D02*
X-2286000Y-1976120D01*
X-2286000Y-1991360D01*
X-2301875Y-1991360D01*
X-2301875Y-1976120D01*
X-2127250Y-1930400D02*
X-2143125Y-1945640D01*
X-2190750Y-1945640D01*
X-2206625Y-1930400D01*
X-2206625Y-1915160D01*
X-2190750Y-1899920D01*
X-2143125Y-1899920D01*
X-2127250Y-1915160D01*
X-2127250Y-1976120D01*
X-2143125Y-1991360D01*
X-2190750Y-1991360D01*
X-2000250Y-1915160D02*
X-2016125Y-1899920D01*
X-2063750Y-1899920D01*
X-2079625Y-1915160D01*
X-2079625Y-1976120D01*
X-2063750Y-1991360D01*
X-2016125Y-1991360D01*
X-2000250Y-1976120D01*
X-2000250Y-1960880D01*
X-2016125Y-1945640D01*
X-2079625Y-1945640D01*
X-1873250Y-1930400D02*
X-1889125Y-1945640D01*
X-1936750Y-1945640D01*
X-1952625Y-1930400D01*
X-1952625Y-1915160D01*
X-1936750Y-1899920D01*
X-1889125Y-1899920D01*
X-1873250Y-1915160D01*
X-1873250Y-1976120D01*
X-1889125Y-1991360D01*
X-1936750Y-1991360D01*
X-1841500Y-1991360D02*
X-1841500Y-1899920D01*
X-1793875Y-1945640D01*
X-1746250Y-1899920D01*
X-1746250Y-1991360D01*
X+1016000Y+2857500D02*
X+1016000Y-1778000D01*
X+1016000Y+2857500D02*
X+889000Y+2730500D01*
X+1016000Y+2857500D02*
X+1143000Y+2730500D01*
X+1016000Y-1778000D02*
X+1143000Y-1651000D01*
X+1016000Y-1778000D02*
X+889000Y-1651000D01*
X+1047750Y+539750D02*
X+1047641Y+542384D01*
X+1046751Y+547653D01*
X+1044889Y+552922D01*
X+1041846Y+558191D01*
X+1037191Y+563393D01*
X+1031922Y+567219D01*
X+1026653Y+569659D01*
X+1021384Y+571040D01*
X+1016115Y+571500D01*
X+1016000Y+571500D01*
X+984250Y+539750D02*
X+984359Y+542384D01*
X+985249Y+547653D01*
X+987111Y+552922D01*
X+990154Y+558191D01*
X+994809Y+563393D01*
X+1000078Y+567219D01*
X+1005347Y+569659D01*
X+1010616Y+571040D01*
X+1015885Y+571500D01*
X+1016000Y+571500D01*
X+984250Y+539750D02*
X+984359Y+537116D01*
X+985249Y+531847D01*
X+987111Y+526578D01*
X+990154Y+521309D01*
X+994809Y+516107D01*
X+1000078Y+512281D01*
X+1005347Y+509841D01*
X+1010616Y+508460D01*
X+1015885Y+508000D01*
X+1016000Y+508000D01*
X+1047750Y+539750D02*
X+1047641Y+537116D01*
X+1046751Y+531847D01*
X+1044889Y+526578D01*
X+1041846Y+521309D01*
X+1037191Y+516107D01*
X+1031922Y+512281D01*
X+1026653Y+509841D01*
X+1021384Y+508460D01*
X+1016115Y+508000D01*
X+1016000Y+508000D01*
X+1087120Y+889000D02*
X+1087120Y+984250D01*
X+1148080Y+920750D01*
X+1056640Y+920750D01*
X+1071880Y+809625D02*
X+1071880Y+793750D01*
X+1056640Y+793750D01*
X+1056640Y+809625D01*
X+1071880Y+809625D01*
X+1132840Y+635000D02*
X+1148080Y+650875D01*
X+1148080Y+698500D01*
X+1132840Y+714375D01*
X+1071880Y+714375D01*
X+1056640Y+698500D01*
X+1056640Y+650875D01*
X+1071880Y+635000D01*
X+1087120Y+635000D01*
X+1102360Y+650875D01*
X+1102360Y+714375D01*
X+1132840Y+587375D02*
X+1148080Y+571500D01*
X+1148080Y+523875D01*
X+1132840Y+508000D01*
X+1117600Y+508000D01*
X+1102360Y+523875D01*
X+1087120Y+508000D01*
X+1071880Y+508000D01*
X+1056640Y+523875D01*
X+1056640Y+571500D01*
X+1071880Y+587375D01*
X+1102360Y+555625D02*
X+1102360Y+523875D01*
X+1148080Y+381000D02*
X+1148080Y+460375D01*
X+1117600Y+460375D01*
X+1117600Y+396875D01*
X+1102360Y+381000D01*
X+1071880Y+381000D01*
X+1056640Y+396875D01*
X+1056640Y+444500D01*
X+1071880Y+460375D01*
X+1148080Y+254000D02*
X+1148080Y+333375D01*
X+1117600Y+333375D01*
X+1117600Y+269875D01*
X+1102360Y+254000D01*
X+1071880Y+254000D01*
X+1056640Y+269875D01*
X+1056640Y+317500D01*
X+1071880Y+333375D01*
X+1056640Y+222250D02*
X+1148080Y+222250D01*
X+1102360Y+174625D01*
X+1148080Y+127000D01*
X+1056640Y+127000D01*
X+284480Y-1236980D02*
X+284480Y-220980D01*
X-1239520Y-1236980D02*
X-1239520Y-220980D01*
X+284480Y-220980D02*
X-1239520Y-220980D01*
X-1239520Y-1236980D02*
X+284480Y-1236980D01*
X-858520Y-1353820D02*
X-842645Y-1369060D01*
X-779145Y-1369060D01*
X-763270Y-1353820D01*
X-763270Y-1338580D01*
X-779145Y-1323340D01*
X-842645Y-1323340D01*
X-858520Y-1308100D01*
X-858520Y-1292860D01*
X-842645Y-1277620D01*
X-779145Y-1277620D01*
X-763270Y-1292860D01*
X-731520Y-1369060D02*
X-731520Y-1308100D01*
X-699770Y-1277620D01*
X-668020Y-1277620D01*
X-636270Y-1308100D01*
X-636270Y-1369060D01*
X-731520Y-1338580D02*
X-636270Y-1338580D01*
X-604520Y-1277620D02*
X-604520Y-1369060D01*
X-509270Y-1369060D01*
X-461645Y-1277620D02*
X-398145Y-1277620D01*
X-429895Y-1277620D02*
X-429895Y-1369060D01*
X-461645Y-1369060D02*
X-398145Y-1369060D01*
X-350520Y-1369060D02*
X-350520Y-1277620D01*
X-287020Y-1277620D01*
X-255270Y-1308100D01*
X-255270Y-1338580D01*
X-287020Y-1369060D01*
X-350520Y-1369060D01*
X-223520Y-1369060D02*
X-223520Y-1308100D01*
X-191770Y-1277620D01*
X-160020Y-1277620D01*
X-128270Y-1308100D01*
X-128270Y-1369060D01*
X-223520Y-1338580D02*
X-128270Y-1338580D01*
X-4838700Y-1701800D02*
X+759460Y-1701800D01*
X+759460Y+2705100D01*
X-4838700Y+2705100D01*
X-4838700Y-1701800D01*
M02*
