M48
METRIC,TZ
T01C1.5240
T02C0.7620
T03C1.0160
T04C0.6350
%
T01
X-41580Y+20803
X-41580Y+15723
X+1682Y+18320
X-10318Y+18320
X-4318Y+20320
X-10318Y+5820
X+1682Y+5820
X+305Y-7290
X-4775Y-7290
X-9855Y-7290
T02
X-29139Y+14046
X-34219Y+14046
X-31496Y-7849
X-31496Y-5309
X-31496Y-2769
X-31496Y-229
X-39116Y-229
X-39116Y-2769
X-39116Y-5309
X-39116Y-7849
X-43383Y-11303
X-43383Y-1143
X-18745Y+1549
X-28905Y+1549
X-15850Y+5004
X-15850Y+15164
T03
X-29210Y+6121
X-31750Y+6121
X-43282Y+7976
X-43282Y+5436
X-43282Y+2896
T04
X-27051Y-5874
X-27051Y-7874
X-23978Y+5588
X-21946Y+5588
X-19914Y+5588
M30
