G04 PROTEUS RS274X GERBER FILE*
%FSLAX45Y45*%
%MOMM*%
G01*
%ADD17C,0.203200*%
%ADD39C,0.127000*%
%ADD40C,0.063500*%
D17*
X-4094480Y+2080260D02*
X-4094697Y+2085507D01*
X-4096462Y+2096002D01*
X-4100154Y+2106497D01*
X-4106182Y+2116992D01*
X-4115404Y+2127372D01*
X-4125899Y+2135060D01*
X-4136394Y+2139978D01*
X-4146889Y+2142784D01*
X-4157384Y+2143757D01*
X-4157980Y+2143760D01*
X-4221480Y+2080260D02*
X-4221263Y+2085507D01*
X-4219498Y+2096002D01*
X-4215806Y+2106497D01*
X-4209778Y+2116992D01*
X-4200556Y+2127372D01*
X-4190061Y+2135060D01*
X-4179566Y+2139978D01*
X-4169071Y+2142784D01*
X-4158576Y+2143757D01*
X-4157980Y+2143760D01*
X-4221480Y+2080260D02*
X-4221263Y+2075013D01*
X-4219498Y+2064518D01*
X-4215806Y+2054023D01*
X-4209778Y+2043528D01*
X-4200556Y+2033148D01*
X-4190061Y+2025460D01*
X-4179566Y+2020542D01*
X-4169071Y+2017736D01*
X-4158576Y+2016763D01*
X-4157980Y+2016760D01*
X-4094480Y+2080260D02*
X-4094697Y+2075013D01*
X-4096462Y+2064518D01*
X-4100154Y+2054023D01*
X-4106182Y+2043528D01*
X-4115404Y+2033148D01*
X-4125899Y+2025460D01*
X-4136394Y+2020542D01*
X-4146889Y+2017736D01*
X-4157384Y+2016763D01*
X-4157980Y+2016760D01*
X-4157980Y+2143760D02*
X-4157980Y+2016760D01*
X-4221480Y+2080260D02*
X-4094480Y+2080260D01*
X-4094480Y+1572260D02*
X-4094697Y+1577507D01*
X-4096462Y+1588002D01*
X-4100154Y+1598497D01*
X-4106182Y+1608992D01*
X-4115404Y+1619372D01*
X-4125899Y+1627060D01*
X-4136394Y+1631978D01*
X-4146889Y+1634784D01*
X-4157384Y+1635757D01*
X-4157980Y+1635760D01*
X-4221480Y+1572260D02*
X-4221263Y+1577507D01*
X-4219498Y+1588002D01*
X-4215806Y+1598497D01*
X-4209778Y+1608992D01*
X-4200556Y+1619372D01*
X-4190061Y+1627060D01*
X-4179566Y+1631978D01*
X-4169071Y+1634784D01*
X-4158576Y+1635757D01*
X-4157980Y+1635760D01*
X-4221480Y+1572260D02*
X-4221263Y+1567013D01*
X-4219498Y+1556518D01*
X-4215806Y+1546023D01*
X-4209778Y+1535528D01*
X-4200556Y+1525148D01*
X-4190061Y+1517460D01*
X-4179566Y+1512542D01*
X-4169071Y+1509736D01*
X-4158576Y+1508763D01*
X-4157980Y+1508760D01*
X-4094480Y+1572260D02*
X-4094697Y+1567013D01*
X-4096462Y+1556518D01*
X-4100154Y+1546023D01*
X-4106182Y+1535528D01*
X-4115404Y+1525148D01*
X-4125899Y+1517460D01*
X-4136394Y+1512542D01*
X-4146889Y+1509736D01*
X-4157384Y+1508763D01*
X-4157980Y+1508760D01*
X-4157980Y+1635760D02*
X-4157980Y+1508760D01*
X-4221480Y+1572260D02*
X-4094480Y+1572260D01*
X-2958821Y+1449521D02*
X-2869019Y+1359719D01*
X-2958821Y+1359719D02*
X-2869019Y+1449521D01*
X-3466821Y+1449521D02*
X-3377019Y+1359719D01*
X-3466821Y+1359719D02*
X-3377019Y+1449521D01*
X-2921000Y+675640D02*
X-2921000Y+548640D01*
X-2984500Y+612140D02*
X-2857500Y+612140D01*
X-2965901Y+657041D02*
X-2876099Y+567239D01*
X-2965901Y+567239D02*
X-2876099Y+657041D01*
X-3175000Y+675640D02*
X-3175000Y+548640D01*
X-3238500Y+612140D02*
X-3111500Y+612140D01*
X-3219901Y+657041D02*
X-3130099Y+567239D01*
X-3219901Y+567239D02*
X-3130099Y+657041D01*
X-3194501Y-739959D02*
X-3104699Y-829761D01*
X-3194501Y-829761D02*
X-3104699Y-739959D01*
X-3194501Y-485959D02*
X-3104699Y-575761D01*
X-3194501Y-575761D02*
X-3104699Y-485959D01*
X-3194501Y-231959D02*
X-3104699Y-321761D01*
X-3194501Y-321761D02*
X-3104699Y-231959D01*
X-3194501Y+22041D02*
X-3104699Y-67761D01*
X-3194501Y-67761D02*
X-3104699Y+22041D01*
X-3956501Y+22041D02*
X-3866699Y-67761D01*
X-3956501Y-67761D02*
X-3866699Y+22041D01*
X-3956501Y-231959D02*
X-3866699Y-321761D01*
X-3956501Y-321761D02*
X-3866699Y-231959D01*
X-3956501Y-485959D02*
X-3866699Y-575761D01*
X-3956501Y-575761D02*
X-3866699Y-485959D01*
X-3956501Y-739959D02*
X-3866699Y-829761D01*
X-3956501Y-829761D02*
X-3866699Y-739959D01*
X-4328160Y+861060D02*
X-4328160Y+734060D01*
X-4391660Y+797560D02*
X-4264660Y+797560D01*
X-4373061Y+842461D02*
X-4283259Y+752659D01*
X-4373061Y+752659D02*
X-4283259Y+842461D01*
X-4328160Y+607060D02*
X-4328160Y+480060D01*
X-4391660Y+543560D02*
X-4264660Y+543560D01*
X-4373061Y+588461D02*
X-4283259Y+498659D01*
X-4373061Y+498659D02*
X-4283259Y+588461D01*
X-4328160Y+353060D02*
X-4328160Y+226060D01*
X-4391660Y+289560D02*
X-4264660Y+289560D01*
X-4373061Y+334461D02*
X-4283259Y+244659D01*
X-4373061Y+244659D02*
X-4283259Y+334461D01*
X-4383221Y-1085399D02*
X-4293419Y-1175201D01*
X-4383221Y-1175201D02*
X-4293419Y-1085399D01*
X-4383221Y-69399D02*
X-4293419Y-159201D01*
X-4383221Y-159201D02*
X-4293419Y-69399D01*
X-2705100Y-523900D02*
X-2705100Y-650900D01*
X-2768600Y-587400D02*
X-2641600Y-587400D01*
X-2705100Y-723900D02*
X-2705100Y-850900D01*
X-2768600Y-787400D02*
X-2641600Y-787400D01*
X-1919421Y+199841D02*
X-1829619Y+110039D01*
X-1919421Y+110039D02*
X-1829619Y+199841D01*
X-2935421Y+199841D02*
X-2845619Y+110039D01*
X-2935421Y+110039D02*
X-2845619Y+199841D01*
X-2397760Y+622300D02*
X-2397760Y+495300D01*
X-2461260Y+558800D02*
X-2334260Y+558800D01*
X-2194560Y+622300D02*
X-2194560Y+495300D01*
X-2258060Y+558800D02*
X-2131060Y+558800D01*
X-1991360Y+622300D02*
X-1991360Y+495300D01*
X-2054860Y+558800D02*
X-1927860Y+558800D01*
X-1629861Y+545281D02*
X-1540059Y+455479D01*
X-1629861Y+455479D02*
X-1540059Y+545281D01*
X-1629861Y+1561281D02*
X-1540059Y+1471479D01*
X-1629861Y+1471479D02*
X-1540059Y+1561281D01*
X+231700Y+1832000D02*
X+231483Y+1837247D01*
X+229718Y+1847742D01*
X+226026Y+1858237D01*
X+219998Y+1868732D01*
X+210776Y+1879112D01*
X+200281Y+1886800D01*
X+189786Y+1891718D01*
X+179291Y+1894524D01*
X+168796Y+1895497D01*
X+168200Y+1895500D01*
X+104700Y+1832000D02*
X+104917Y+1837247D01*
X+106682Y+1847742D01*
X+110374Y+1858237D01*
X+116402Y+1868732D01*
X+125624Y+1879112D01*
X+136119Y+1886800D01*
X+146614Y+1891718D01*
X+157109Y+1894524D01*
X+167604Y+1895497D01*
X+168200Y+1895500D01*
X+104700Y+1832000D02*
X+104917Y+1826753D01*
X+106682Y+1816258D01*
X+110374Y+1805763D01*
X+116402Y+1795268D01*
X+125624Y+1784888D01*
X+136119Y+1777200D01*
X+146614Y+1772282D01*
X+157109Y+1769476D01*
X+167604Y+1768503D01*
X+168200Y+1768500D01*
X+231700Y+1832000D02*
X+231483Y+1826753D01*
X+229718Y+1816258D01*
X+226026Y+1805763D01*
X+219998Y+1795268D01*
X+210776Y+1784888D01*
X+200281Y+1777200D01*
X+189786Y+1772282D01*
X+179291Y+1769476D01*
X+168796Y+1768503D01*
X+168200Y+1768500D01*
X+168200Y+1895500D02*
X+168200Y+1768500D01*
X+104700Y+1832000D02*
X+231700Y+1832000D01*
X-968300Y+1832000D02*
X-968517Y+1837247D01*
X-970282Y+1847742D01*
X-973974Y+1858237D01*
X-980002Y+1868732D01*
X-989224Y+1879112D01*
X-999719Y+1886800D01*
X-1010214Y+1891718D01*
X-1020709Y+1894524D01*
X-1031204Y+1895497D01*
X-1031800Y+1895500D01*
X-1095300Y+1832000D02*
X-1095083Y+1837247D01*
X-1093318Y+1847742D01*
X-1089626Y+1858237D01*
X-1083598Y+1868732D01*
X-1074376Y+1879112D01*
X-1063881Y+1886800D01*
X-1053386Y+1891718D01*
X-1042891Y+1894524D01*
X-1032396Y+1895497D01*
X-1031800Y+1895500D01*
X-1095300Y+1832000D02*
X-1095083Y+1826753D01*
X-1093318Y+1816258D01*
X-1089626Y+1805763D01*
X-1083598Y+1795268D01*
X-1074376Y+1784888D01*
X-1063881Y+1777200D01*
X-1053386Y+1772282D01*
X-1042891Y+1769476D01*
X-1032396Y+1768503D01*
X-1031800Y+1768500D01*
X-968300Y+1832000D02*
X-968517Y+1826753D01*
X-970282Y+1816258D01*
X-973974Y+1805763D01*
X-980002Y+1795268D01*
X-989224Y+1784888D01*
X-999719Y+1777200D01*
X-1010214Y+1772282D01*
X-1020709Y+1769476D01*
X-1031204Y+1768503D01*
X-1031800Y+1768500D01*
X-1031800Y+1895500D02*
X-1031800Y+1768500D01*
X-1095300Y+1832000D02*
X-968300Y+1832000D01*
X-368300Y+2032000D02*
X-368517Y+2037247D01*
X-370282Y+2047742D01*
X-373974Y+2058237D01*
X-380002Y+2068732D01*
X-389224Y+2079112D01*
X-399719Y+2086800D01*
X-410214Y+2091718D01*
X-420709Y+2094524D01*
X-431204Y+2095497D01*
X-431800Y+2095500D01*
X-495300Y+2032000D02*
X-495083Y+2037247D01*
X-493318Y+2047742D01*
X-489626Y+2058237D01*
X-483598Y+2068732D01*
X-474376Y+2079112D01*
X-463881Y+2086800D01*
X-453386Y+2091718D01*
X-442891Y+2094524D01*
X-432396Y+2095497D01*
X-431800Y+2095500D01*
X-495300Y+2032000D02*
X-495083Y+2026753D01*
X-493318Y+2016258D01*
X-489626Y+2005763D01*
X-483598Y+1995268D01*
X-474376Y+1984888D01*
X-463881Y+1977200D01*
X-453386Y+1972282D01*
X-442891Y+1969476D01*
X-432396Y+1968503D01*
X-431800Y+1968500D01*
X-368300Y+2032000D02*
X-368517Y+2026753D01*
X-370282Y+2016258D01*
X-373974Y+2005763D01*
X-380002Y+1995268D01*
X-389224Y+1984888D01*
X-399719Y+1977200D01*
X-410214Y+1972282D01*
X-420709Y+1969476D01*
X-431204Y+1968503D01*
X-431800Y+1968500D01*
X-431800Y+2095500D02*
X-431800Y+1968500D01*
X-495300Y+2032000D02*
X-368300Y+2032000D01*
X-968300Y+582000D02*
X-968517Y+587247D01*
X-970282Y+597742D01*
X-973974Y+608237D01*
X-980002Y+618732D01*
X-989224Y+629112D01*
X-999719Y+636800D01*
X-1010214Y+641718D01*
X-1020709Y+644524D01*
X-1031204Y+645497D01*
X-1031800Y+645500D01*
X-1095300Y+582000D02*
X-1095083Y+587247D01*
X-1093318Y+597742D01*
X-1089626Y+608237D01*
X-1083598Y+618732D01*
X-1074376Y+629112D01*
X-1063881Y+636800D01*
X-1053386Y+641718D01*
X-1042891Y+644524D01*
X-1032396Y+645497D01*
X-1031800Y+645500D01*
X-1095300Y+582000D02*
X-1095083Y+576753D01*
X-1093318Y+566258D01*
X-1089626Y+555763D01*
X-1083598Y+545268D01*
X-1074376Y+534888D01*
X-1063881Y+527200D01*
X-1053386Y+522282D01*
X-1042891Y+519476D01*
X-1032396Y+518503D01*
X-1031800Y+518500D01*
X-968300Y+582000D02*
X-968517Y+576753D01*
X-970282Y+566258D01*
X-973974Y+555763D01*
X-980002Y+545268D01*
X-989224Y+534888D01*
X-999719Y+527200D01*
X-1010214Y+522282D01*
X-1020709Y+519476D01*
X-1031204Y+518503D01*
X-1031800Y+518500D01*
X-1031800Y+645500D02*
X-1031800Y+518500D01*
X-1095300Y+582000D02*
X-968300Y+582000D01*
X+231700Y+582000D02*
X+231483Y+587247D01*
X+229718Y+597742D01*
X+226026Y+608237D01*
X+219998Y+618732D01*
X+210776Y+629112D01*
X+200281Y+636800D01*
X+189786Y+641718D01*
X+179291Y+644524D01*
X+168796Y+645497D01*
X+168200Y+645500D01*
X+104700Y+582000D02*
X+104917Y+587247D01*
X+106682Y+597742D01*
X+110374Y+608237D01*
X+116402Y+618732D01*
X+125624Y+629112D01*
X+136119Y+636800D01*
X+146614Y+641718D01*
X+157109Y+644524D01*
X+167604Y+645497D01*
X+168200Y+645500D01*
X+104700Y+582000D02*
X+104917Y+576753D01*
X+106682Y+566258D01*
X+110374Y+555763D01*
X+116402Y+545268D01*
X+125624Y+534888D01*
X+136119Y+527200D01*
X+146614Y+522282D01*
X+157109Y+519476D01*
X+167604Y+518503D01*
X+168200Y+518500D01*
X+231700Y+582000D02*
X+231483Y+576753D01*
X+229718Y+566258D01*
X+226026Y+555763D01*
X+219998Y+545268D01*
X+210776Y+534888D01*
X+200281Y+527200D01*
X+189786Y+522282D01*
X+179291Y+519476D01*
X+168796Y+518503D01*
X+168200Y+518500D01*
X+168200Y+645500D02*
X+168200Y+518500D01*
X+104700Y+582000D02*
X+231700Y+582000D01*
X+93980Y-728980D02*
X+93763Y-723733D01*
X+91998Y-713238D01*
X+88306Y-702743D01*
X+82278Y-692248D01*
X+73056Y-681868D01*
X+62561Y-674180D01*
X+52066Y-669262D01*
X+41571Y-666456D01*
X+31076Y-665483D01*
X+30480Y-665480D01*
X-33020Y-728980D02*
X-32803Y-723733D01*
X-31038Y-713238D01*
X-27346Y-702743D01*
X-21318Y-692248D01*
X-12096Y-681868D01*
X-1601Y-674180D01*
X+8894Y-669262D01*
X+19389Y-666456D01*
X+29884Y-665483D01*
X+30480Y-665480D01*
X-33020Y-728980D02*
X-32803Y-734227D01*
X-31038Y-744722D01*
X-27346Y-755217D01*
X-21318Y-765712D01*
X-12096Y-776092D01*
X-1601Y-783780D01*
X+8894Y-788698D01*
X+19389Y-791504D01*
X+29884Y-792477D01*
X+30480Y-792480D01*
X+93980Y-728980D02*
X+93763Y-734227D01*
X+91998Y-744722D01*
X+88306Y-755217D01*
X+82278Y-765712D01*
X+73056Y-776092D01*
X+62561Y-783780D01*
X+52066Y-788698D01*
X+41571Y-791504D01*
X+31076Y-792477D01*
X+30480Y-792480D01*
X+30480Y-665480D02*
X+30480Y-792480D01*
X-33020Y-728980D02*
X+93980Y-728980D01*
X-414020Y-728980D02*
X-414237Y-723733D01*
X-416002Y-713238D01*
X-419694Y-702743D01*
X-425722Y-692248D01*
X-434944Y-681868D01*
X-445439Y-674180D01*
X-455934Y-669262D01*
X-466429Y-666456D01*
X-476924Y-665483D01*
X-477520Y-665480D01*
X-541020Y-728980D02*
X-540803Y-723733D01*
X-539038Y-713238D01*
X-535346Y-702743D01*
X-529318Y-692248D01*
X-520096Y-681868D01*
X-509601Y-674180D01*
X-499106Y-669262D01*
X-488611Y-666456D01*
X-478116Y-665483D01*
X-477520Y-665480D01*
X-541020Y-728980D02*
X-540803Y-734227D01*
X-539038Y-744722D01*
X-535346Y-755217D01*
X-529318Y-765712D01*
X-520096Y-776092D01*
X-509601Y-783780D01*
X-499106Y-788698D01*
X-488611Y-791504D01*
X-478116Y-792477D01*
X-477520Y-792480D01*
X-414020Y-728980D02*
X-414237Y-734227D01*
X-416002Y-744722D01*
X-419694Y-755217D01*
X-425722Y-765712D01*
X-434944Y-776092D01*
X-445439Y-783780D01*
X-455934Y-788698D01*
X-466429Y-791504D01*
X-476924Y-792477D01*
X-477520Y-792480D01*
X-477520Y-665480D02*
X-477520Y-792480D01*
X-541020Y-728980D02*
X-414020Y-728980D01*
X-922020Y-728980D02*
X-922237Y-723733D01*
X-924002Y-713238D01*
X-927694Y-702743D01*
X-933722Y-692248D01*
X-942944Y-681868D01*
X-953439Y-674180D01*
X-963934Y-669262D01*
X-974429Y-666456D01*
X-984924Y-665483D01*
X-985520Y-665480D01*
X-1049020Y-728980D02*
X-1048803Y-723733D01*
X-1047038Y-713238D01*
X-1043346Y-702743D01*
X-1037318Y-692248D01*
X-1028096Y-681868D01*
X-1017601Y-674180D01*
X-1007106Y-669262D01*
X-996611Y-666456D01*
X-986116Y-665483D01*
X-985520Y-665480D01*
X-1049020Y-728980D02*
X-1048803Y-734227D01*
X-1047038Y-744722D01*
X-1043346Y-755217D01*
X-1037318Y-765712D01*
X-1028096Y-776092D01*
X-1017601Y-783780D01*
X-1007106Y-788698D01*
X-996611Y-791504D01*
X-986116Y-792477D01*
X-985520Y-792480D01*
X-922020Y-728980D02*
X-922237Y-734227D01*
X-924002Y-744722D01*
X-927694Y-755217D01*
X-933722Y-765712D01*
X-942944Y-776092D01*
X-953439Y-783780D01*
X-963934Y-788698D01*
X-974429Y-791504D01*
X-984924Y-792477D01*
X-985520Y-792480D01*
X-985520Y-665480D02*
X-985520Y-792480D01*
X-1049020Y-728980D02*
X-922020Y-728980D01*
X-4838700Y-1701800D02*
X+759460Y-1701800D01*
X+759460Y+2705100D01*
X-4838700Y+2705100D01*
X-4838700Y-1701800D01*
D39*
X-5090160Y-3667760D02*
X-2446020Y-3667760D01*
X-2446020Y-2423160D01*
X-5090160Y-2423160D01*
X-5090160Y-3667760D01*
D40*
X-4622798Y-2423160D02*
X-4622798Y-3667760D01*
X-3809998Y-2423160D02*
X-3809998Y-3667760D01*
X-2976878Y-2423160D02*
X-2976878Y-3667760D01*
X-5090160Y-2696210D02*
X-2446020Y-2696210D01*
X-5090160Y-2937510D02*
X-2446020Y-2937510D01*
X-5090160Y-3178810D02*
X-2446020Y-3178810D01*
X-5090160Y-3420110D02*
X-2446020Y-3420110D01*
D39*
X-5033010Y-2586990D02*
X-5017770Y-2602230D01*
X-4956810Y-2602230D01*
X-4941570Y-2586990D01*
X-4941570Y-2571750D01*
X-4956810Y-2556510D01*
X-5017770Y-2556510D01*
X-5033010Y-2541270D01*
X-5033010Y-2526030D01*
X-5017770Y-2510790D01*
X-4956810Y-2510790D01*
X-4941570Y-2526030D01*
X-4819650Y-2510790D02*
X-4911090Y-2602230D01*
X-4911090Y-2510790D02*
X-4865370Y-2556510D01*
X-4789170Y-2602230D02*
X-4789170Y-2510790D01*
X-4743450Y-2556510D01*
X-4697730Y-2510790D01*
X-4697730Y-2602230D01*
X-4565650Y-2586990D02*
X-4550410Y-2602230D01*
X-4489450Y-2602230D01*
X-4474210Y-2586990D01*
X-4474210Y-2571750D01*
X-4489450Y-2556510D01*
X-4550410Y-2556510D01*
X-4565650Y-2541270D01*
X-4565650Y-2526030D01*
X-4550410Y-2510790D01*
X-4489450Y-2510790D01*
X-4474210Y-2526030D01*
X-4428490Y-2510790D02*
X-4367530Y-2510790D01*
X-4398010Y-2510790D02*
X-4398010Y-2602230D01*
X-4428490Y-2602230D02*
X-4367530Y-2602230D01*
X-4321810Y-2510790D02*
X-4230370Y-2510790D01*
X-4321810Y-2602230D01*
X-4230370Y-2602230D01*
X-4108450Y-2602230D02*
X-4199890Y-2602230D01*
X-4199890Y-2510790D01*
X-4108450Y-2510790D01*
X-4199890Y-2556510D02*
X-4138930Y-2556510D01*
X-3752850Y-2602230D02*
X-3752850Y-2510790D01*
X-3676650Y-2510790D01*
X-3661410Y-2526030D01*
X-3661410Y-2541270D01*
X-3676650Y-2556510D01*
X-3752850Y-2556510D01*
X-3630930Y-2510790D02*
X-3630930Y-2602230D01*
X-3539490Y-2602230D01*
X-3509010Y-2602230D02*
X-3509010Y-2541270D01*
X-3478530Y-2510790D01*
X-3448050Y-2510790D01*
X-3417570Y-2541270D01*
X-3417570Y-2602230D01*
X-3509010Y-2571750D02*
X-3417570Y-2571750D01*
X-3387090Y-2510790D02*
X-3295650Y-2510790D01*
X-3341370Y-2510790D02*
X-3341370Y-2602230D01*
X-3173730Y-2602230D02*
X-3265170Y-2602230D01*
X-3265170Y-2510790D01*
X-3173730Y-2510790D01*
X-3265170Y-2556510D02*
X-3204210Y-2556510D01*
X-3143250Y-2602230D02*
X-3143250Y-2510790D01*
X-3082290Y-2510790D01*
X-3051810Y-2541270D01*
X-3051810Y-2571750D01*
X-3082290Y-2602230D01*
X-3143250Y-2602230D01*
X-2919730Y-2541270D02*
X-2889250Y-2510790D01*
X-2858770Y-2510790D01*
X-2828290Y-2541270D01*
X-2828290Y-2571750D01*
X-2858770Y-2602230D01*
X-2889250Y-2602230D01*
X-2919730Y-2571750D01*
X-2919730Y-2541270D01*
X-2858770Y-2571750D02*
X-2828290Y-2602230D01*
X-2797810Y-2510790D02*
X-2706370Y-2510790D01*
X-2752090Y-2510790D02*
X-2752090Y-2602230D01*
X-2584450Y-2510790D02*
X-2675890Y-2602230D01*
X-2675890Y-2510790D02*
X-2630170Y-2556510D01*
D17*
X-4843780Y-2747010D02*
X-4843780Y-2874010D01*
X-4907280Y-2810510D02*
X-4780280Y-2810510D01*
D39*
X-4546600Y-2835910D02*
X-4546600Y-2785110D01*
X-4533900Y-2772410D01*
X-4483100Y-2772410D01*
X-4470400Y-2785110D01*
X-4470400Y-2835910D01*
X-4483100Y-2848610D01*
X-4533900Y-2848610D01*
X-4546600Y-2835910D01*
X-4546600Y-2848610D02*
X-4470400Y-2772410D01*
X-4406900Y-2835910D02*
X-4394200Y-2835910D01*
X-4394200Y-2848610D01*
X-4406900Y-2848610D01*
X-4406900Y-2835910D01*
X-4267200Y-2785110D02*
X-4279900Y-2772410D01*
X-4318000Y-2772410D01*
X-4330700Y-2785110D01*
X-4330700Y-2835910D01*
X-4318000Y-2848610D01*
X-4279900Y-2848610D01*
X-4267200Y-2835910D01*
X-4267200Y-2823210D01*
X-4279900Y-2810510D01*
X-4330700Y-2810510D01*
X-4229100Y-2785110D02*
X-4216400Y-2772410D01*
X-4178300Y-2772410D01*
X-4165600Y-2785110D01*
X-4165600Y-2797810D01*
X-4178300Y-2810510D01*
X-4165600Y-2823210D01*
X-4165600Y-2835910D01*
X-4178300Y-2848610D01*
X-4216400Y-2848610D01*
X-4229100Y-2835910D01*
X-4203700Y-2810510D02*
X-4178300Y-2810510D01*
X-4064000Y-2772410D02*
X-4127500Y-2772410D01*
X-4127500Y-2797810D01*
X-4076700Y-2797810D01*
X-4064000Y-2810510D01*
X-4064000Y-2835910D01*
X-4076700Y-2848610D01*
X-4114800Y-2848610D01*
X-4127500Y-2835910D01*
X-4038600Y-2848610D02*
X-4038600Y-2797810D01*
X-4038600Y-2810510D02*
X-4025900Y-2797810D01*
X-4000500Y-2823210D01*
X-3975100Y-2797810D01*
X-3962400Y-2810510D01*
X-3962400Y-2848610D01*
X-3937000Y-2848610D02*
X-3937000Y-2797810D01*
X-3937000Y-2810510D02*
X-3924300Y-2797810D01*
X-3898900Y-2823210D01*
X-3873500Y-2797810D01*
X-3860800Y-2810510D01*
X-3860800Y-2848610D01*
X-3644900Y-2772410D02*
X-3721100Y-2848610D01*
X-3721100Y-2772410D02*
X-3683000Y-2810510D01*
X-3543300Y-2848610D02*
X-3619500Y-2848610D01*
X-3619500Y-2772410D01*
X-3543300Y-2772410D01*
X-3619500Y-2810510D02*
X-3568700Y-2810510D01*
X-3517900Y-2835910D02*
X-3505200Y-2848610D01*
X-3454400Y-2848610D01*
X-3441700Y-2835910D01*
X-3441700Y-2823210D01*
X-3454400Y-2810510D01*
X-3505200Y-2810510D01*
X-3517900Y-2797810D01*
X-3517900Y-2785110D01*
X-3505200Y-2772410D01*
X-3454400Y-2772410D01*
X-3441700Y-2785110D01*
X-2799080Y-2772410D02*
X-2862580Y-2772410D01*
X-2862580Y-2797810D01*
X-2811780Y-2797810D01*
X-2799080Y-2810510D01*
X-2799080Y-2835910D01*
X-2811780Y-2848610D01*
X-2849880Y-2848610D01*
X-2862580Y-2835910D01*
D17*
X-4888681Y-3006909D02*
X-4798879Y-3096711D01*
X-4888681Y-3096711D02*
X-4798879Y-3006909D01*
D39*
X-4546600Y-3077210D02*
X-4546600Y-3026410D01*
X-4533900Y-3013710D01*
X-4483100Y-3013710D01*
X-4470400Y-3026410D01*
X-4470400Y-3077210D01*
X-4483100Y-3089910D01*
X-4533900Y-3089910D01*
X-4546600Y-3077210D01*
X-4546600Y-3089910D02*
X-4470400Y-3013710D01*
X-4406900Y-3077210D02*
X-4394200Y-3077210D01*
X-4394200Y-3089910D01*
X-4406900Y-3089910D01*
X-4406900Y-3077210D01*
X-4330700Y-3013710D02*
X-4267200Y-3013710D01*
X-4267200Y-3026410D01*
X-4330700Y-3089910D01*
X-4165600Y-3026410D02*
X-4178300Y-3013710D01*
X-4216400Y-3013710D01*
X-4229100Y-3026410D01*
X-4229100Y-3077210D01*
X-4216400Y-3089910D01*
X-4178300Y-3089910D01*
X-4165600Y-3077210D01*
X-4165600Y-3064510D01*
X-4178300Y-3051810D01*
X-4229100Y-3051810D01*
X-4127500Y-3026410D02*
X-4114800Y-3013710D01*
X-4076700Y-3013710D01*
X-4064000Y-3026410D01*
X-4064000Y-3039110D01*
X-4076700Y-3051810D01*
X-4114800Y-3051810D01*
X-4127500Y-3064510D01*
X-4127500Y-3089910D01*
X-4064000Y-3089910D01*
X-4038600Y-3089910D02*
X-4038600Y-3039110D01*
X-4038600Y-3051810D02*
X-4025900Y-3039110D01*
X-4000500Y-3064510D01*
X-3975100Y-3039110D01*
X-3962400Y-3051810D01*
X-3962400Y-3089910D01*
X-3937000Y-3089910D02*
X-3937000Y-3039110D01*
X-3937000Y-3051810D02*
X-3924300Y-3039110D01*
X-3898900Y-3064510D01*
X-3873500Y-3039110D01*
X-3860800Y-3051810D01*
X-3860800Y-3089910D01*
X-3644900Y-3013710D02*
X-3721100Y-3089910D01*
X-3721100Y-3013710D02*
X-3683000Y-3051810D01*
X-3543300Y-3089910D02*
X-3619500Y-3089910D01*
X-3619500Y-3013710D01*
X-3543300Y-3013710D01*
X-3619500Y-3051810D02*
X-3568700Y-3051810D01*
X-3517900Y-3077210D02*
X-3505200Y-3089910D01*
X-3454400Y-3089910D01*
X-3441700Y-3077210D01*
X-3441700Y-3064510D01*
X-3454400Y-3051810D01*
X-3505200Y-3051810D01*
X-3517900Y-3039110D01*
X-3517900Y-3026410D01*
X-3505200Y-3013710D01*
X-3454400Y-3013710D01*
X-3441700Y-3026410D01*
X-2849880Y-3039110D02*
X-2824480Y-3013710D01*
X-2824480Y-3089910D01*
X-2697480Y-3026410D02*
X-2710180Y-3013710D01*
X-2748280Y-3013710D01*
X-2760980Y-3026410D01*
X-2760980Y-3077210D01*
X-2748280Y-3089910D01*
X-2710180Y-3089910D01*
X-2697480Y-3077210D01*
X-2697480Y-3064510D01*
X-2710180Y-3051810D01*
X-2760980Y-3051810D01*
D17*
X-4843780Y-3229610D02*
X-4843780Y-3356610D01*
X-4907280Y-3293110D02*
X-4780280Y-3293110D01*
X-4888681Y-3248209D02*
X-4798879Y-3338011D01*
X-4888681Y-3338011D02*
X-4798879Y-3248209D01*
D39*
X-4521200Y-3280410D02*
X-4495800Y-3255010D01*
X-4495800Y-3331210D01*
X-4406900Y-3318510D02*
X-4394200Y-3318510D01*
X-4394200Y-3331210D01*
X-4406900Y-3331210D01*
X-4406900Y-3318510D01*
X-4343400Y-3318510D02*
X-4343400Y-3267710D01*
X-4330700Y-3255010D01*
X-4279900Y-3255010D01*
X-4267200Y-3267710D01*
X-4267200Y-3318510D01*
X-4279900Y-3331210D01*
X-4330700Y-3331210D01*
X-4343400Y-3318510D01*
X-4343400Y-3331210D02*
X-4267200Y-3255010D01*
X-4216400Y-3280410D02*
X-4191000Y-3255010D01*
X-4191000Y-3331210D01*
X-4064000Y-3267710D02*
X-4076700Y-3255010D01*
X-4114800Y-3255010D01*
X-4127500Y-3267710D01*
X-4127500Y-3318510D01*
X-4114800Y-3331210D01*
X-4076700Y-3331210D01*
X-4064000Y-3318510D01*
X-4064000Y-3305810D01*
X-4076700Y-3293110D01*
X-4127500Y-3293110D01*
X-4038600Y-3331210D02*
X-4038600Y-3280410D01*
X-4038600Y-3293110D02*
X-4025900Y-3280410D01*
X-4000500Y-3305810D01*
X-3975100Y-3280410D01*
X-3962400Y-3293110D01*
X-3962400Y-3331210D01*
X-3937000Y-3331210D02*
X-3937000Y-3280410D01*
X-3937000Y-3293110D02*
X-3924300Y-3280410D01*
X-3898900Y-3305810D01*
X-3873500Y-3280410D01*
X-3860800Y-3293110D01*
X-3860800Y-3331210D01*
X-3644900Y-3255010D02*
X-3721100Y-3331210D01*
X-3721100Y-3255010D02*
X-3683000Y-3293110D01*
X-3543300Y-3331210D02*
X-3619500Y-3331210D01*
X-3619500Y-3255010D01*
X-3543300Y-3255010D01*
X-3619500Y-3293110D02*
X-3568700Y-3293110D01*
X-3517900Y-3318510D02*
X-3505200Y-3331210D01*
X-3454400Y-3331210D01*
X-3441700Y-3318510D01*
X-3441700Y-3305810D01*
X-3454400Y-3293110D01*
X-3505200Y-3293110D01*
X-3517900Y-3280410D01*
X-3517900Y-3267710D01*
X-3505200Y-3255010D01*
X-3454400Y-3255010D01*
X-3441700Y-3267710D01*
X-2799080Y-3255010D02*
X-2862580Y-3255010D01*
X-2862580Y-3280410D01*
X-2811780Y-3280410D01*
X-2799080Y-3293110D01*
X-2799080Y-3318510D01*
X-2811780Y-3331210D01*
X-2849880Y-3331210D01*
X-2862580Y-3318510D01*
D17*
X-4780280Y-3534410D02*
X-4780497Y-3529163D01*
X-4782262Y-3518668D01*
X-4785954Y-3508173D01*
X-4791982Y-3497678D01*
X-4801204Y-3487298D01*
X-4811699Y-3479610D01*
X-4822194Y-3474692D01*
X-4832689Y-3471886D01*
X-4843184Y-3470913D01*
X-4843780Y-3470910D01*
X-4907280Y-3534410D02*
X-4907063Y-3529163D01*
X-4905298Y-3518668D01*
X-4901606Y-3508173D01*
X-4895578Y-3497678D01*
X-4886356Y-3487298D01*
X-4875861Y-3479610D01*
X-4865366Y-3474692D01*
X-4854871Y-3471886D01*
X-4844376Y-3470913D01*
X-4843780Y-3470910D01*
X-4907280Y-3534410D02*
X-4907063Y-3539657D01*
X-4905298Y-3550152D01*
X-4901606Y-3560647D01*
X-4895578Y-3571142D01*
X-4886356Y-3581522D01*
X-4875861Y-3589210D01*
X-4865366Y-3594128D01*
X-4854871Y-3596934D01*
X-4844376Y-3597907D01*
X-4843780Y-3597910D01*
X-4780280Y-3534410D02*
X-4780497Y-3539657D01*
X-4782262Y-3550152D01*
X-4785954Y-3560647D01*
X-4791982Y-3571142D01*
X-4801204Y-3581522D01*
X-4811699Y-3589210D01*
X-4822194Y-3594128D01*
X-4832689Y-3596934D01*
X-4843184Y-3597907D01*
X-4843780Y-3597910D01*
X-4843780Y-3470910D02*
X-4843780Y-3597910D01*
X-4907280Y-3534410D02*
X-4780280Y-3534410D01*
D39*
X-4521200Y-3521710D02*
X-4495800Y-3496310D01*
X-4495800Y-3572510D01*
X-4406900Y-3559810D02*
X-4394200Y-3559810D01*
X-4394200Y-3572510D01*
X-4406900Y-3572510D01*
X-4406900Y-3559810D01*
X-4267200Y-3496310D02*
X-4330700Y-3496310D01*
X-4330700Y-3521710D01*
X-4279900Y-3521710D01*
X-4267200Y-3534410D01*
X-4267200Y-3559810D01*
X-4279900Y-3572510D01*
X-4318000Y-3572510D01*
X-4330700Y-3559810D01*
X-4229100Y-3509010D02*
X-4216400Y-3496310D01*
X-4178300Y-3496310D01*
X-4165600Y-3509010D01*
X-4165600Y-3521710D01*
X-4178300Y-3534410D01*
X-4216400Y-3534410D01*
X-4229100Y-3547110D01*
X-4229100Y-3572510D01*
X-4165600Y-3572510D01*
X-4064000Y-3547110D02*
X-4140200Y-3547110D01*
X-4089400Y-3496310D01*
X-4089400Y-3572510D01*
X-4038600Y-3572510D02*
X-4038600Y-3521710D01*
X-4038600Y-3534410D02*
X-4025900Y-3521710D01*
X-4000500Y-3547110D01*
X-3975100Y-3521710D01*
X-3962400Y-3534410D01*
X-3962400Y-3572510D01*
X-3937000Y-3572510D02*
X-3937000Y-3521710D01*
X-3937000Y-3534410D02*
X-3924300Y-3521710D01*
X-3898900Y-3547110D01*
X-3873500Y-3521710D01*
X-3860800Y-3534410D01*
X-3860800Y-3572510D01*
X-3644900Y-3496310D02*
X-3721100Y-3572510D01*
X-3721100Y-3496310D02*
X-3683000Y-3534410D01*
X-3543300Y-3572510D02*
X-3619500Y-3572510D01*
X-3619500Y-3496310D01*
X-3543300Y-3496310D01*
X-3619500Y-3534410D02*
X-3568700Y-3534410D01*
X-3517900Y-3559810D02*
X-3505200Y-3572510D01*
X-3454400Y-3572510D01*
X-3441700Y-3559810D01*
X-3441700Y-3547110D01*
X-3454400Y-3534410D01*
X-3505200Y-3534410D01*
X-3517900Y-3521710D01*
X-3517900Y-3509010D01*
X-3505200Y-3496310D01*
X-3454400Y-3496310D01*
X-3441700Y-3509010D01*
X-2849880Y-3521710D02*
X-2824480Y-3496310D01*
X-2824480Y-3572510D01*
X-2773680Y-3559810D02*
X-2773680Y-3509010D01*
X-2760980Y-3496310D01*
X-2710180Y-3496310D01*
X-2697480Y-3509010D01*
X-2697480Y-3559810D01*
X-2710180Y-3572510D01*
X-2760980Y-3572510D01*
X-2773680Y-3559810D01*
X-2773680Y-3572510D02*
X-2697480Y-3496310D01*
M02*
