G04 PROTEUS RS274X GERBER FILE*
%FSLAX45Y45*%
%MOMM*%
G01*
%ADD10C,3.048000*%
%ADD11C,1.778000*%
%ADD12R,2.032000X2.032000*%
%AMDIL003*
4,1,8,
-1.270000,0.457000,-0.965000,0.762000,0.965000,0.762000,1.270000,0.457000,1.270000,-0.457000,
0.965000,-0.762000,-0.965000,-0.762000,-1.270000,-0.457000,-1.270000,0.457000,
0*%
%ADD13DIL003*%
%ADD14C,2.032000*%
%ADD15R,1.524000X1.524000*%
%ADD16C,2.540000*%
%ADD17C,0.203200*%
D10*
X-4157980Y+2080260D03*
X-4157980Y+1572260D03*
D11*
X-2913920Y+1404620D03*
X-3421920Y+1404620D03*
D12*
X-2921000Y+612140D03*
X-3175000Y+612140D03*
D13*
X-3149600Y-784860D03*
X-3149600Y-530860D03*
X-3149600Y-276860D03*
X-3149600Y-22860D03*
X-3911600Y-22860D03*
X-3911600Y-276860D03*
X-3911600Y-530860D03*
X-3911600Y-784860D03*
D12*
X-4328160Y+797560D03*
X-4328160Y+543560D03*
X-4328160Y+289560D03*
D14*
X-4338320Y-1130300D03*
X-4338320Y-114300D03*
D15*
X-2705100Y-587400D03*
X-2705100Y-787400D03*
D14*
X-1874520Y+154940D03*
X-2890520Y+154940D03*
D15*
X-2397760Y+558800D03*
X-2194560Y+558800D03*
X-1991360Y+558800D03*
D14*
X-1584960Y+500380D03*
X-1584960Y+1516380D03*
D16*
X+168200Y+1832000D03*
X-1031800Y+1832000D03*
X-431800Y+2032000D03*
X-1031800Y+582000D03*
X+168200Y+582000D03*
D10*
X+30480Y-728980D03*
X-477520Y-728980D03*
X-985520Y-728980D03*
D17*
X-4838700Y-1701800D02*
X+759460Y-1701800D01*
X+759460Y+2705100D01*
X-4838700Y+2705100D01*
X-4838700Y-1701800D01*
M02*
