G04 PROTEUS RS274X GERBER FILE*
%FSLAX45Y45*%
%MOMM*%
G01*
%ADD21C,3.302000*%
%ADD14C,2.032000*%
%AMPPAD014*
4,1,36,
1.016000,-1.143000,
-1.016000,-1.143000,
-1.041970,-1.140470,
-1.065980,-1.133200,
-1.087580,-1.121650,
-1.106290,-1.106290,
-1.121650,-1.087570,
-1.133200,-1.065980,
-1.140470,-1.041970,
-1.143000,-1.016000,
-1.143000,1.016000,
-1.140470,1.041970,
-1.133200,1.065980,
-1.121650,1.087570,
-1.106290,1.106290,
-1.087580,1.121650,
-1.065980,1.133200,
-1.041970,1.140470,
-1.016000,1.143000,
1.016000,1.143000,
1.041970,1.140470,
1.065980,1.133200,
1.087580,1.121650,
1.106290,1.106290,
1.121650,1.087570,
1.133200,1.065980,
1.140470,1.041970,
1.143000,1.016000,
1.143000,-1.016000,
1.140470,-1.041970,
1.133200,-1.065980,
1.121650,-1.087570,
1.106290,-1.106290,
1.087580,-1.121650,
1.065980,-1.133200,
1.041970,-1.140470,
1.016000,-1.143000,
0*%
%ADD22PPAD014*%
%AMPPAD015*
4,1,8,
1.397000,0.509600,
1.397000,-0.509600,
1.017600,-0.889000,
-1.017600,-0.889000,
-1.397000,-0.509600,
-1.397000,0.509600,
-1.017600,0.889000,
1.017600,0.889000,
1.397000,0.509600,
0*%
%ADD23PPAD015*%
%AMPPAD016*
4,1,36,
1.143000,1.016000,
1.143000,-1.016000,
1.140470,-1.041970,
1.133200,-1.065980,
1.121650,-1.087580,
1.106290,-1.106290,
1.087570,-1.121650,
1.065980,-1.133200,
1.041970,-1.140470,
1.016000,-1.143000,
-1.016000,-1.143000,
-1.041970,-1.140470,
-1.065980,-1.133200,
-1.087570,-1.121650,
-1.106290,-1.106290,
-1.121650,-1.087580,
-1.133200,-1.065980,
-1.140470,-1.041970,
-1.143000,-1.016000,
-1.143000,1.016000,
-1.140470,1.041970,
-1.133200,1.065980,
-1.121650,1.087580,
-1.106290,1.106290,
-1.087570,1.121650,
-1.065980,1.133200,
-1.041970,1.140470,
-1.016000,1.143000,
1.016000,1.143000,
1.041970,1.140470,
1.065980,1.133200,
1.087570,1.121650,
1.106290,1.106290,
1.121650,1.087580,
1.133200,1.065980,
1.140470,1.041970,
1.143000,1.016000,
0*%
%ADD24PPAD016*%
%ADD25C,2.286000*%
%AMPPAD018*
4,1,36,
-0.762000,0.889000,
0.762000,0.889000,
0.787970,0.886470,
0.811980,0.879200,
0.833580,0.867650,
0.852290,0.852290,
0.867650,0.833570,
0.879200,0.811980,
0.886470,0.787970,
0.889000,0.762000,
0.889000,-0.762000,
0.886470,-0.787970,
0.879200,-0.811980,
0.867650,-0.833570,
0.852290,-0.852290,
0.833580,-0.867650,
0.811980,-0.879200,
0.787970,-0.886470,
0.762000,-0.889000,
-0.762000,-0.889000,
-0.787970,-0.886470,
-0.811980,-0.879200,
-0.833580,-0.867650,
-0.852290,-0.852290,
-0.867650,-0.833570,
-0.879200,-0.811980,
-0.886470,-0.787970,
-0.889000,-0.762000,
-0.889000,0.762000,
-0.886470,0.787970,
-0.879200,0.811980,
-0.867650,0.833570,
-0.852290,0.852290,
-0.833580,0.867650,
-0.811980,0.879200,
-0.787970,0.886470,
-0.762000,0.889000,
0*%
%ADD26PPAD018*%
%ADD27C,2.794000*%
%ADD17C,0.203200*%
D21*
X-4157980Y+2080260D03*
X-4157980Y+1572260D03*
D14*
X-2913920Y+1404620D03*
X-3421920Y+1404620D03*
D22*
X-2921000Y+612140D03*
X-3175000Y+612140D03*
D23*
X-3149600Y-784860D03*
X-3149600Y-530860D03*
X-3149600Y-276860D03*
X-3149600Y-22860D03*
X-3911600Y-22860D03*
X-3911600Y-276860D03*
X-3911600Y-530860D03*
X-3911600Y-784860D03*
D24*
X-4328160Y+797560D03*
X-4328160Y+543560D03*
X-4328160Y+289560D03*
D25*
X-4338320Y-1130300D03*
X-4338320Y-114300D03*
D26*
X-2705100Y-587400D03*
X-2705100Y-787400D03*
D25*
X-1874520Y+154940D03*
X-2890520Y+154940D03*
D26*
X-2397760Y+558800D03*
X-2194560Y+558800D03*
X-1991360Y+558800D03*
D25*
X-1584960Y+500380D03*
X-1584960Y+1516380D03*
D27*
X+168200Y+1832000D03*
X-1031800Y+1832000D03*
X-431800Y+2032000D03*
X-1031800Y+582000D03*
X+168200Y+582000D03*
D21*
X+30480Y-728980D03*
X-477520Y-728980D03*
X-985520Y-728980D03*
D17*
X-4838700Y-1701800D02*
X+759460Y-1701800D01*
X+759460Y+2705100D01*
X-4838700Y+2705100D01*
X-4838700Y-1701800D01*
M02*
