G04 PROTEUS RS274X GERBER FILE*
%FSLAX45Y45*%
%MOMM*%
G01*
%ADD18C,0.254000*%
%ADD19C,1.016000*%
%ADD70C,0.635000*%
%ADD10C,3.048000*%
%ADD11C,1.778000*%
%ADD12R,2.032000X2.032000*%
%AMDIL003*
4,1,8,
-1.270000,0.457000,-0.965000,0.762000,0.965000,0.762000,1.270000,0.457000,1.270000,-0.457000,
0.965000,-0.762000,-0.965000,-0.762000,-1.270000,-0.457000,-1.270000,0.457000,
0*%
%ADD13DIL003*%
%ADD14C,2.032000*%
%ADD15R,1.524000X1.524000*%
%ADD16C,2.540000*%
%ADD17C,0.203200*%
G36*
X+609600Y-1529080D02*
X-4765040Y-1529080D01*
X-4765040Y+2639060D01*
X+609600Y+2639060D01*
X+609600Y-1529080D01*
G37*
%LPC*%
G36*
X-4255299Y+2315209D02*
X-4060661Y+2315209D01*
X-3923031Y+2177579D01*
X-3923031Y+1982941D01*
X-4060661Y+1845311D01*
X-4255299Y+1845311D01*
X-4392929Y+1982941D01*
X-4392929Y+2177579D01*
X-4255299Y+2315209D01*
G37*
G36*
X-45409Y+2489511D02*
X+301549Y+2142553D01*
X+301549Y+1994998D01*
X+377749Y+1918798D01*
X+377749Y+1745202D01*
X+254998Y+1622451D01*
X+81402Y+1622451D01*
X-41349Y+1745202D01*
X-41349Y+1918798D01*
X+34851Y+1994998D01*
X+34851Y+2032087D01*
X-194933Y+2261871D01*
X-1059652Y+2261871D01*
X-1466268Y+1855255D01*
X-1466268Y+1658114D01*
X-1400811Y+1592657D01*
X-1400811Y+1440103D01*
X-1508683Y+1332231D01*
X-1661237Y+1332231D01*
X-1726694Y+1397688D01*
X-2002750Y+1397688D01*
X-2736851Y+663587D01*
X-2736851Y+427991D01*
X-3016251Y+427991D01*
X-3016251Y+289635D01*
X-2966797Y+339089D01*
X-2814243Y+339089D01*
X-2706371Y+231217D01*
X-2706371Y+78663D01*
X-2766682Y+18352D01*
X-2766682Y-245019D01*
X-2931872Y-410209D01*
X-2940051Y-410209D01*
X-2940051Y-454051D01*
X-2863849Y-454051D01*
X-2863849Y-428651D01*
X-2546351Y-428651D01*
X-2546351Y-946149D01*
X-2863849Y-946149D01*
X-2863849Y-720749D01*
X-2940051Y-720749D01*
X-2940051Y-943609D01*
X-3359149Y-943609D01*
X-3359149Y-679449D01*
X-3446133Y-679449D01*
X-3702051Y-423531D01*
X-3702051Y-943609D01*
X-3881767Y-943609D01*
X-4123691Y-1185533D01*
X-4123691Y-1185535D01*
X-4201805Y-1263649D01*
X-4211243Y-1263649D01*
X-4262043Y-1314449D01*
X-4414597Y-1314449D01*
X-4522469Y-1206577D01*
X-4522469Y-1054023D01*
X-4452917Y-984471D01*
X-4452917Y-862151D01*
X-4753609Y-561459D01*
X-4753609Y+995033D01*
X-4477713Y+1270929D01*
X-3530695Y+1270929D01*
X-3593369Y+1333603D01*
X-3593369Y+1475637D01*
X-3492937Y+1576069D01*
X-3350903Y+1576069D01*
X-3336648Y+1561814D01*
X-3290656Y+1607806D01*
X-3533809Y+1607806D01*
X-3731404Y+1410211D01*
X-3987761Y+1410211D01*
X-4060661Y+1337311D01*
X-4255299Y+1337311D01*
X-4392929Y+1474941D01*
X-4392929Y+1669579D01*
X-4255299Y+1807209D01*
X-4060661Y+1807209D01*
X-3930361Y+1676909D01*
X-3841870Y+1676909D01*
X-3722391Y+1796388D01*
X-3722391Y+1796390D01*
X-3644277Y+1874504D01*
X-2156988Y+1874504D01*
X-1946870Y+1664386D01*
X-1732966Y+1664386D01*
X-1732966Y+1965721D01*
X-1170118Y+2528569D01*
X-84467Y+2528569D01*
X-45409Y+2489511D01*
G37*
G36*
X-822251Y+1918798D02*
X-822251Y+1745202D01*
X-923291Y+1644162D01*
X-923291Y+1218738D01*
X-1451611Y+690418D01*
X-1451611Y+627457D01*
X-1400811Y+576657D01*
X-1400811Y+424103D01*
X-1508683Y+316231D01*
X-1661237Y+316231D01*
X-1712037Y+367031D01*
X-1988173Y+367031D01*
X-2021193Y+400051D01*
X-2052064Y+400051D01*
X-1970950Y+318936D01*
X-1950797Y+339089D01*
X-1798243Y+339089D01*
X-1690371Y+231217D01*
X-1690371Y+78663D01*
X-1798243Y-29209D01*
X-1950797Y-29209D01*
X-2010081Y+30075D01*
X-2059252Y+30075D01*
X-2327909Y+298732D01*
X-2327909Y+400051D01*
X-2556509Y+400051D01*
X-2556509Y+717549D01*
X-1832611Y+717549D01*
X-1832611Y+633729D01*
X-1718309Y+633729D01*
X-1718309Y+800884D01*
X-1189989Y+1329204D01*
X-1189989Y+1693842D01*
X-1241349Y+1745202D01*
X-1241349Y+1918798D01*
X-1118598Y+2041549D01*
X-945002Y+2041549D01*
X-822251Y+1918798D01*
G37*
G36*
X-222251Y+2118798D02*
X-222251Y+1945202D01*
X-344171Y+1823282D01*
X-344171Y-530061D01*
X-242571Y-631661D01*
X-242571Y-826299D01*
X-380201Y-963929D01*
X-574839Y-963929D01*
X-712469Y-826299D01*
X-712469Y-631661D01*
X-610869Y-530061D01*
X-610869Y+1914722D01*
X-641349Y+1945202D01*
X-641349Y+2118798D01*
X-518598Y+2241549D01*
X-345002Y+2241549D01*
X-222251Y+2118798D01*
G37*
G36*
X-822251Y+668798D02*
X-822251Y+495202D01*
X-878131Y+439322D01*
X-878131Y-504101D01*
X-750571Y-631661D01*
X-750571Y-826299D01*
X-888201Y-963929D01*
X-1082839Y-963929D01*
X-1220469Y-826299D01*
X-1220469Y-631661D01*
X-1144829Y-556021D01*
X-1144829Y+398682D01*
X-1241349Y+495202D01*
X-1241349Y+668798D01*
X-1118598Y+791549D01*
X-945002Y+791549D01*
X-822251Y+668798D01*
G37*
G36*
X+377749Y+668798D02*
X+377749Y+495202D01*
X+321869Y+439322D01*
X+321869Y-626173D01*
X+265429Y-682613D01*
X+265429Y-826299D01*
X+127799Y-963929D01*
X-66839Y-963929D01*
X-204469Y-826299D01*
X-204469Y-631661D01*
X-66839Y-494031D01*
X+55171Y-494031D01*
X+55171Y+398682D01*
X-41349Y+495202D01*
X-41349Y+668798D01*
X+81402Y+791549D01*
X+254998Y+791549D01*
X+377749Y+668798D01*
G37*
%LPD*%
D18*
X-4328160Y+554669D02*
X-4328160Y+543560D01*
D19*
X-4328160Y+554669D02*
X-4328160Y+797560D01*
X-3911600Y-530860D02*
X-4090060Y-530860D01*
X-4349574Y-271346D01*
X-4349574Y-94165D01*
X-4338320Y-82911D01*
D18*
X-4338320Y-114300D01*
D19*
X-4338320Y-82911D02*
X-4338320Y+298193D01*
X-4339249Y+299122D01*
X-4328160Y+289560D01*
X+168200Y+1832000D02*
X+168200Y+2087320D01*
X-139700Y+2395220D01*
X-1114885Y+2395220D01*
X-1599617Y+1910488D01*
X-1599617Y+1531037D01*
X-1584960Y+1516380D01*
X-1584960Y+500380D02*
X-1584960Y+745651D01*
X-1307663Y+1022948D01*
X-1056640Y+1273971D01*
X-1056640Y+1705000D01*
X-1031800Y+1832000D01*
X-1584960Y+500380D02*
X-1932940Y+500380D01*
X-1991360Y+558800D01*
X-2705100Y-587400D02*
X-3071191Y-587400D01*
X-3123385Y-535206D01*
X-3149600Y-530860D01*
X-3911600Y-276860D02*
X-3714927Y-276860D01*
X-3660140Y-276860D01*
X-3390900Y-546100D01*
X-3209596Y-546100D01*
X-3183119Y-519623D01*
X-3149600Y-530860D01*
X-3149600Y-276860D02*
X-2987105Y-276860D01*
X-2900031Y-189786D01*
X-2900031Y+132259D01*
X-2897434Y+134856D01*
X-2890520Y+154940D01*
D18*
X-3149600Y+373380D02*
X-3149600Y-31604D01*
X-3154551Y-36555D01*
X-3149600Y-22860D01*
D19*
X-4257040Y-1130300D02*
X-3911600Y-784860D01*
X-3149600Y-22860D02*
X-3149600Y+373380D01*
D18*
X-2705100Y-787400D02*
X-3139440Y-787400D01*
X-3169920Y-817880D01*
X-3149600Y-784860D01*
D19*
X-2194560Y+558800D02*
X-2194560Y+353965D01*
X-2004019Y+163424D01*
X-1887148Y+163424D01*
X-1881954Y+168618D01*
X-1874520Y+154940D01*
X-2002103Y+1531037D02*
X-1686560Y+1531037D01*
X-1584960Y+1516380D01*
X-3149600Y+373380D02*
X-3149600Y+568822D01*
X-3188313Y+607535D01*
X-3175000Y+612140D01*
D18*
X-4319568Y-1130300D02*
X-4319568Y-1159358D01*
X-4307415Y-1171511D01*
X-4338320Y-1130300D01*
X-4319568Y-1130300D01*
D19*
X-4257040Y-1130300D01*
X-3911600Y-276860D02*
X-4018280Y-276860D01*
X-4138380Y-156760D01*
X-4138400Y+553257D01*
X-4134406Y+557251D01*
X-4325578Y+557251D01*
X-4328160Y+554669D01*
X-2921000Y+612140D02*
X-2948940Y+640080D01*
X-2030043Y+1558977D01*
X-2002103Y+1531037D01*
X-2960122Y+1741155D02*
X-2212221Y+1741155D01*
X-2030043Y+1558977D01*
X-1031800Y+582000D02*
X-1011480Y+582000D01*
X-1011480Y-743718D01*
X-972032Y-783166D01*
X-985520Y-728980D01*
X+30480Y-728980D02*
X+188520Y-570940D01*
X+188520Y+582000D01*
X+168200Y+582000D01*
X-477520Y-728980D02*
X-477520Y+1996440D01*
X-411480Y+2062480D01*
X-411480Y+2032000D01*
X-431800Y+2032000D01*
X-2913920Y+1404620D02*
X-2913920Y+1287240D01*
X-3354967Y+846193D01*
X-3911600Y+846193D01*
X-3911600Y-22860D01*
X-3175000Y+612140D02*
X-3175000Y+726441D01*
X-2672823Y+1228618D01*
X-2672823Y+1490980D01*
X-2756934Y+1575091D01*
X-3134789Y+1575091D01*
X-3213820Y+1496060D01*
X-3213820Y+1226101D01*
X-3302341Y+1137580D01*
X-4422480Y+1137580D01*
X-4620260Y+939800D01*
X-4620260Y-506226D01*
X-4319568Y-806918D01*
X-4319568Y-1130300D01*
X-4157980Y+1572260D02*
X-4129280Y+1543560D01*
X-3786637Y+1543560D01*
X-3589042Y+1741155D01*
X-3525520Y+1741155D01*
X-2960122Y+1741155D02*
X-3525520Y+1741155D01*
D70*
X+609600Y-1529080D02*
X-4765040Y-1529080D01*
X-4765040Y+2639060D01*
X+609600Y+2639060D01*
X+609600Y-1529080D01*
X-4255299Y+2315209D02*
X-4060661Y+2315209D01*
X-3923031Y+2177579D01*
X-3923031Y+1982941D01*
X-4060661Y+1845311D01*
X-4255299Y+1845311D01*
X-4392929Y+1982941D01*
X-4392929Y+2177579D01*
X-4255299Y+2315209D01*
X-45409Y+2489511D02*
X+301549Y+2142553D01*
X+301549Y+1994998D01*
X+377749Y+1918798D01*
X+377749Y+1745202D01*
X+254998Y+1622451D01*
X+81402Y+1622451D01*
X-41349Y+1745202D01*
X-41349Y+1918798D01*
X+34851Y+1994998D01*
X+34851Y+2032087D01*
X-194933Y+2261871D01*
X-1059652Y+2261871D01*
X-1466268Y+1855255D01*
X-1466268Y+1658114D01*
X-1400811Y+1592657D01*
X-1400811Y+1440103D01*
X-1508683Y+1332231D01*
X-1661237Y+1332231D01*
X-1726694Y+1397688D01*
X-2002750Y+1397688D01*
X-2736851Y+663587D01*
X-2736851Y+427991D01*
X-3016251Y+427991D01*
X-3016251Y+289635D01*
X-2966797Y+339089D01*
X-2814243Y+339089D01*
X-2706371Y+231217D01*
X-2706371Y+78663D01*
X-2766682Y+18352D01*
X-2766682Y-245019D01*
X-2931872Y-410209D01*
X-2940051Y-410209D01*
X-2940051Y-454051D01*
X-2863849Y-454051D01*
X-2863849Y-428651D01*
X-2546351Y-428651D01*
X-2546351Y-946149D01*
X-2863849Y-946149D01*
X-2863849Y-720749D01*
X-2940051Y-720749D01*
X-2940051Y-943609D01*
X-3359149Y-943609D01*
X-3359149Y-679449D01*
X-3446133Y-679449D01*
X-3702051Y-423531D01*
X-3702051Y-943609D01*
X-3881767Y-943609D01*
X-4123691Y-1185533D01*
X-4123691Y-1185535D01*
X-4201805Y-1263649D01*
X-4211243Y-1263649D01*
X-4262043Y-1314449D01*
X-4414597Y-1314449D01*
X-4522469Y-1206577D01*
X-4522469Y-1054023D01*
X-4452917Y-984471D01*
X-4452917Y-862151D01*
X-4753609Y-561459D01*
X-4753609Y+995033D01*
X-4477713Y+1270929D01*
X-3530695Y+1270929D01*
X-3593369Y+1333603D01*
X-3593369Y+1475637D01*
X-3492937Y+1576069D01*
X-3350903Y+1576069D01*
X-3336648Y+1561814D01*
X-3290656Y+1607806D01*
X-3533809Y+1607806D01*
X-3731404Y+1410211D01*
X-3987761Y+1410211D01*
X-4060661Y+1337311D01*
X-4255299Y+1337311D01*
X-4392929Y+1474941D01*
X-4392929Y+1669579D01*
X-4255299Y+1807209D01*
X-4060661Y+1807209D01*
X-3930361Y+1676909D01*
X-3841870Y+1676909D01*
X-3722391Y+1796388D01*
X-3722391Y+1796390D01*
X-3644277Y+1874504D01*
X-2156988Y+1874504D01*
X-1946870Y+1664386D01*
X-1732966Y+1664386D01*
X-1732966Y+1965721D01*
X-1170118Y+2528569D01*
X-84467Y+2528569D01*
X-45409Y+2489511D01*
X-822251Y+1918798D02*
X-822251Y+1745202D01*
X-923291Y+1644162D01*
X-923291Y+1218738D01*
X-1451611Y+690418D01*
X-1451611Y+627457D01*
X-1400811Y+576657D01*
X-1400811Y+424103D01*
X-1508683Y+316231D01*
X-1661237Y+316231D01*
X-1712037Y+367031D01*
X-1988173Y+367031D01*
X-2021193Y+400051D01*
X-2052064Y+400051D01*
X-1970950Y+318936D01*
X-1950797Y+339089D01*
X-1798243Y+339089D01*
X-1690371Y+231217D01*
X-1690371Y+78663D01*
X-1798243Y-29209D01*
X-1950797Y-29209D01*
X-2010081Y+30075D01*
X-2059252Y+30075D01*
X-2327909Y+298732D01*
X-2327909Y+400051D01*
X-2556509Y+400051D01*
X-2556509Y+717549D01*
X-1832611Y+717549D01*
X-1832611Y+633729D01*
X-1718309Y+633729D01*
X-1718309Y+800884D01*
X-1189989Y+1329204D01*
X-1189989Y+1693842D01*
X-1241349Y+1745202D01*
X-1241349Y+1918798D01*
X-1118598Y+2041549D01*
X-945002Y+2041549D01*
X-822251Y+1918798D01*
X-222251Y+2118798D02*
X-222251Y+1945202D01*
X-344171Y+1823282D01*
X-344171Y-530061D01*
X-242571Y-631661D01*
X-242571Y-826299D01*
X-380201Y-963929D01*
X-574839Y-963929D01*
X-712469Y-826299D01*
X-712469Y-631661D01*
X-610869Y-530061D01*
X-610869Y+1914722D01*
X-641349Y+1945202D01*
X-641349Y+2118798D01*
X-518598Y+2241549D01*
X-345002Y+2241549D01*
X-222251Y+2118798D01*
X-822251Y+668798D02*
X-822251Y+495202D01*
X-878131Y+439322D01*
X-878131Y-504101D01*
X-750571Y-631661D01*
X-750571Y-826299D01*
X-888201Y-963929D01*
X-1082839Y-963929D01*
X-1220469Y-826299D01*
X-1220469Y-631661D01*
X-1144829Y-556021D01*
X-1144829Y+398682D01*
X-1241349Y+495202D01*
X-1241349Y+668798D01*
X-1118598Y+791549D01*
X-945002Y+791549D01*
X-822251Y+668798D01*
X+377749Y+668798D02*
X+377749Y+495202D01*
X+321869Y+439322D01*
X+321869Y-626173D01*
X+265429Y-682613D01*
X+265429Y-826299D01*
X+127799Y-963929D01*
X-66839Y-963929D01*
X-204469Y-826299D01*
X-204469Y-631661D01*
X-66839Y-494031D01*
X+55171Y-494031D01*
X+55171Y+398682D01*
X-41349Y+495202D01*
X-41349Y+668798D01*
X+81402Y+791549D01*
X+254998Y+791549D01*
X+377749Y+668798D01*
X-4157980Y+2315209D02*
X-4157980Y+2080260D01*
X-4157980Y+1845311D02*
X-4157980Y+2080260D01*
X-4392929Y+2080260D02*
X-4157980Y+2080260D01*
X-3923031Y+2080260D02*
X-4157980Y+2080260D01*
X-3593369Y+1404620D02*
X-3421920Y+1404620D01*
X-3421920Y+1576069D02*
X-3421920Y+1404620D01*
X-3149600Y-943609D02*
X-3149600Y-784860D01*
X-3359149Y-784860D02*
X-3149600Y-784860D01*
X-2940051Y-784860D02*
X-3149600Y-784860D01*
X-2863849Y-787400D02*
X-2705100Y-787400D01*
X-2546351Y-787400D02*
X-2705100Y-787400D01*
X-2705100Y-946149D02*
X-2705100Y-787400D01*
X-2556509Y+558800D02*
X-2397760Y+558800D01*
X-2397760Y+400051D02*
X-2397760Y+558800D01*
X-2397760Y+717549D02*
X-2397760Y+558800D01*
D10*
X-4157980Y+2080260D03*
X-4157980Y+1572260D03*
D11*
X-2913920Y+1404620D03*
X-3421920Y+1404620D03*
D12*
X-2921000Y+612140D03*
X-3175000Y+612140D03*
D13*
X-3149600Y-784860D03*
X-3149600Y-530860D03*
X-3149600Y-276860D03*
X-3149600Y-22860D03*
X-3911600Y-22860D03*
X-3911600Y-276860D03*
X-3911600Y-530860D03*
X-3911600Y-784860D03*
D12*
X-4328160Y+797560D03*
X-4328160Y+543560D03*
X-4328160Y+289560D03*
D14*
X-4338320Y-1130300D03*
X-4338320Y-114300D03*
D15*
X-2705100Y-587400D03*
X-2705100Y-787400D03*
D14*
X-1874520Y+154940D03*
X-2890520Y+154940D03*
D15*
X-2397760Y+558800D03*
X-2194560Y+558800D03*
X-1991360Y+558800D03*
D14*
X-1584960Y+500380D03*
X-1584960Y+1516380D03*
D16*
X+168200Y+1832000D03*
X-1031800Y+1832000D03*
X-431800Y+2032000D03*
X-1031800Y+582000D03*
X+168200Y+582000D03*
D10*
X+30480Y-728980D03*
X-477520Y-728980D03*
X-985520Y-728980D03*
D17*
X-4838700Y-1701800D02*
X+759460Y-1701800D01*
X+759460Y+2705100D01*
X-4838700Y+2705100D01*
X-4838700Y-1701800D01*
M02*
