G04 PROTEUS RS274X GERBER FILE*
%FSLAX45Y45*%
%MOMM*%
G01*
%ADD17C,0.203200*%
%ADD28C,1.219200*%
%ADD29C,0.139330*%
%ADD72C,0.711200*%
%ADD73C,0.177800*%
%ADD30C,0.812800*%
%ADD31C,0.110060*%
%ADD19C,1.016000*%
%ADD32C,0.305810*%
%ADD33C,0.050000*%
%ADD34C,0.609600*%
%ADD35C,0.168480*%
%ADD36C,0.186690*%
%ADD37C,0.557730*%
%ADD38C,0.178640*%
D17*
X-4676140Y+1308100D02*
X-3639820Y+1308100D01*
X-3639820Y+2344420D01*
X-4676140Y+2344420D01*
X-4676140Y+1308100D01*
D28*
X-4157980Y+2080260D02*
X-4157980Y+2080260D01*
D29*
X-4502838Y+1621899D02*
X-4596890Y+1621899D01*
X-4596890Y+1705501D01*
X-4502838Y+1705501D01*
X-4596890Y+1663700D02*
X-4534189Y+1663700D01*
X-4471487Y+1621899D02*
X-4471487Y+1705501D01*
X-4377435Y+1621899D01*
X-4377435Y+1705501D01*
X-4346084Y+1705501D02*
X-4252032Y+1705501D01*
X-4299058Y+1705501D02*
X-4299058Y+1621899D01*
X-4220681Y+1621899D02*
X-4220681Y+1705501D01*
X-4142305Y+1705501D01*
X-4126629Y+1691567D01*
X-4126629Y+1677634D01*
X-4142305Y+1663700D01*
X-4220681Y+1663700D01*
X-4142305Y+1663700D02*
X-4126629Y+1649766D01*
X-4126629Y+1621899D01*
X-4095278Y+1621899D02*
X-4095278Y+1677634D01*
X-4063928Y+1705501D01*
X-4032577Y+1705501D01*
X-4001226Y+1677634D01*
X-4001226Y+1621899D01*
X-4095278Y+1649766D02*
X-4001226Y+1649766D01*
X-3969875Y+1621899D02*
X-3969875Y+1705501D01*
X-3907174Y+1705501D01*
X-3875823Y+1677634D01*
X-3875823Y+1649766D01*
X-3907174Y+1621899D01*
X-3969875Y+1621899D01*
X-3844472Y+1621899D02*
X-3844472Y+1677634D01*
X-3813122Y+1705501D01*
X-3781771Y+1705501D01*
X-3750420Y+1677634D01*
X-3750420Y+1621899D01*
X-3844472Y+1649766D02*
X-3750420Y+1649766D01*
D17*
X-3559080Y+1267460D02*
X-2776760Y+1267460D01*
X-2776760Y+1541780D01*
X-3559080Y+1541780D01*
X-3559080Y+1267460D01*
D72*
X-2913920Y+1404620D02*
X-2913920Y+1404620D01*
D73*
X-3294285Y+1369060D02*
X-3314288Y+1351280D01*
X-3374295Y+1351280D01*
X-3414300Y+1386840D01*
X-3414300Y+1422400D01*
X-3374295Y+1457960D01*
X-3314288Y+1457960D01*
X-3294285Y+1440180D01*
X-3214275Y+1422400D02*
X-3174270Y+1457960D01*
X-3174270Y+1351280D01*
D17*
X-3312160Y+474980D02*
X-2783840Y+474980D01*
X-2783840Y+749300D01*
X-3312160Y+749300D01*
X-3312160Y+474980D01*
D30*
X-2921000Y+612140D02*
X-2921000Y+612140D01*
D31*
X-3285488Y+579120D02*
X-3285488Y+645159D01*
X-3223577Y+645159D01*
X-3211194Y+634153D01*
X-3211194Y+623146D01*
X-3223577Y+612140D01*
X-3285488Y+612140D01*
X-3186429Y+645159D02*
X-3186429Y+590126D01*
X-3174047Y+579120D01*
X-3124518Y+579120D01*
X-3112135Y+590126D01*
X-3112135Y+645159D01*
X-3087370Y+645159D02*
X-3087370Y+579120D01*
X-3013076Y+579120D01*
D17*
X-3975100Y-922020D02*
X-3086100Y-922020D01*
X-3086100Y+114300D01*
X-3975100Y+114300D01*
X-3975100Y-922020D01*
D19*
X-3149600Y-784860D02*
X-3149600Y-784860D01*
D32*
X-3679494Y-679094D02*
X-3526586Y-679094D01*
X-3496005Y-644690D01*
X-3496005Y-507073D01*
X-3526586Y-472669D01*
X-3679494Y-472669D01*
X-3618331Y-335052D02*
X-3679494Y-266243D01*
X-3496005Y-266243D01*
D17*
X-4465320Y+152400D02*
X-4191000Y+152400D01*
X-4191000Y+934720D01*
X-4465320Y+934720D01*
X-4465320Y+152400D01*
D30*
X-4328160Y+797560D02*
X-4328160Y+797560D01*
D73*
X-4274820Y+214630D02*
X-4381500Y+214630D01*
X-4381500Y+314642D01*
X-4363720Y+334645D01*
X-4345940Y+334645D01*
X-4328160Y+314642D01*
X-4328160Y+214630D01*
X-4328160Y+314642D02*
X-4310380Y+334645D01*
X-4274820Y+334645D01*
X-4381500Y+374650D02*
X-4328160Y+374650D01*
X-4274820Y+434657D01*
X-4328160Y+494665D01*
X-4381500Y+494665D01*
X-4345940Y+574675D02*
X-4381500Y+614680D01*
X-4274820Y+614680D01*
D17*
X-4427220Y-1219200D02*
X-4249420Y-1219200D01*
X-4249420Y-25400D01*
X-4427220Y-25400D01*
X-4427220Y-1219200D01*
D30*
X-4338320Y-1130300D02*
X-4338320Y-1130300D01*
D31*
X-4305249Y-656742D02*
X-4371390Y-656742D01*
X-4371390Y-594735D01*
X-4360367Y-582333D01*
X-4349343Y-582333D01*
X-4338320Y-594735D01*
X-4338320Y-656742D01*
X-4338320Y-594735D02*
X-4327296Y-582333D01*
X-4305249Y-582333D01*
X-4360367Y-545129D02*
X-4371390Y-532727D01*
X-4371390Y-495523D01*
X-4360367Y-483121D01*
X-4349343Y-483121D01*
X-4338320Y-495523D01*
X-4338320Y-532727D01*
X-4327296Y-545129D01*
X-4305249Y-545129D01*
X-4305249Y-483121D01*
D33*
X-2680100Y-687400D02*
X-2680186Y-685324D01*
X-2680888Y-681171D01*
X-2682358Y-677018D01*
X-2684760Y-672865D01*
X-2688433Y-668766D01*
X-2692586Y-665757D01*
X-2696739Y-663840D01*
X-2700892Y-662757D01*
X-2705045Y-662400D01*
X-2705100Y-662400D01*
X-2730100Y-687400D02*
X-2730014Y-685324D01*
X-2729312Y-681171D01*
X-2727842Y-677018D01*
X-2725440Y-672865D01*
X-2721767Y-668766D01*
X-2717614Y-665757D01*
X-2713461Y-663840D01*
X-2709308Y-662757D01*
X-2705155Y-662400D01*
X-2705100Y-662400D01*
X-2730100Y-687400D02*
X-2730014Y-689476D01*
X-2729312Y-693629D01*
X-2727842Y-697782D01*
X-2725440Y-701935D01*
X-2721767Y-706034D01*
X-2717614Y-709043D01*
X-2713461Y-710960D01*
X-2709308Y-712043D01*
X-2705155Y-712400D01*
X-2705100Y-712400D01*
X-2680100Y-687400D02*
X-2680186Y-689476D01*
X-2680888Y-693629D01*
X-2682358Y-697782D01*
X-2684760Y-701935D01*
X-2688433Y-706034D01*
X-2692586Y-709043D01*
X-2696739Y-710960D01*
X-2700892Y-712043D01*
X-2705045Y-712400D01*
X-2705100Y-712400D01*
X-2705100Y-722400D02*
X-2705100Y-652400D01*
X-2670100Y-687400D02*
X-2740100Y-687400D01*
X-2430100Y-412400D02*
X-2705100Y-412400D01*
X-2761328Y-417872D01*
X-2813327Y-433616D01*
X-2860090Y-458625D01*
X-2900608Y-491892D01*
X-2933875Y-532411D01*
X-2958884Y-579173D01*
X-2974628Y-631172D01*
X-2980100Y-687400D01*
X-2974628Y-743628D01*
X-2958884Y-795627D01*
X-2933875Y-842389D01*
X-2900608Y-882908D01*
X-2860090Y-916175D01*
X-2813327Y-941184D01*
X-2761328Y-956928D01*
X-2705100Y-962400D01*
X-2648872Y-956928D01*
X-2596873Y-941184D01*
X-2550110Y-916175D01*
X-2509592Y-882908D01*
X-2476325Y-842389D01*
X-2451316Y-795627D01*
X-2435572Y-743628D01*
X-2430100Y-687400D01*
X-2430100Y-412400D01*
D34*
X-2705100Y-787400D02*
X-2705100Y-787400D01*
D73*
X-2745201Y-619056D02*
X-2765252Y-636878D01*
X-2825403Y-636878D01*
X-2865503Y-601233D01*
X-2865503Y-565588D01*
X-2825403Y-529943D01*
X-2765252Y-529943D01*
X-2745201Y-547765D01*
X-2685050Y-547765D02*
X-2665000Y-529943D01*
X-2604849Y-529943D01*
X-2584798Y-547765D01*
X-2584798Y-565588D01*
X-2604849Y-583410D01*
X-2665000Y-583410D01*
X-2685050Y-601233D01*
X-2685050Y-636878D01*
X-2584798Y-636878D01*
D17*
X-2979420Y+66040D02*
X-1785620Y+66040D01*
X-1785620Y+243840D01*
X-2979420Y+243840D01*
X-2979420Y+66040D01*
D30*
X-1874520Y+154940D02*
X-1874520Y+154940D01*
D31*
X-2546502Y+121869D02*
X-2546502Y+188010D01*
X-2484495Y+188010D01*
X-2472093Y+176987D01*
X-2472093Y+165963D01*
X-2484495Y+154940D01*
X-2546502Y+154940D01*
X-2484495Y+154940D02*
X-2472093Y+143916D01*
X-2472093Y+121869D01*
X-2434889Y+176987D02*
X-2422487Y+188010D01*
X-2385283Y+188010D01*
X-2372881Y+176987D01*
X-2372881Y+165963D01*
X-2385283Y+154940D01*
X-2372881Y+143916D01*
X-2372881Y+132892D01*
X-2385283Y+121869D01*
X-2422487Y+121869D01*
X-2434889Y+132892D01*
X-2410086Y+154940D02*
X-2385283Y+154940D01*
D17*
X-2547620Y+383540D02*
X-1841500Y+383540D01*
X-1841500Y+886460D01*
X-2547620Y+886460D01*
X-2547620Y+383540D01*
D34*
X-2397760Y+558800D02*
X-2397760Y+558800D01*
D35*
X-2256027Y+651848D02*
X-2218118Y+685545D01*
X-2180209Y+685545D01*
X-2142300Y+651848D01*
X-2142300Y+618151D01*
X-2180209Y+584454D01*
X-2218118Y+584454D01*
X-2256027Y+618151D01*
X-2256027Y+651848D01*
X-2180209Y+618151D02*
X-2142300Y+584454D01*
X-2066481Y+651848D02*
X-2028572Y+685545D01*
X-2028572Y+584454D01*
D17*
X-1727200Y+386080D02*
X-1440180Y+386080D01*
X-1440180Y+1630680D01*
X-1727200Y+1630680D01*
X-1727200Y+386080D01*
D30*
X-1584960Y+1516380D02*
X-1584960Y+1516380D01*
D36*
X-1527683Y+762889D02*
X-1639697Y+762889D01*
X-1639697Y+846899D01*
X-1602359Y+888904D01*
X-1565021Y+888904D01*
X-1527683Y+846899D01*
X-1527683Y+762889D01*
X-1621028Y+951912D02*
X-1639697Y+972915D01*
X-1639697Y+1035923D01*
X-1621028Y+1056925D01*
X-1602359Y+1056925D01*
X-1583690Y+1035923D01*
X-1565021Y+1056925D01*
X-1546352Y+1056925D01*
X-1527683Y+1035923D01*
X-1527683Y+972915D01*
X-1546352Y+951912D01*
X-1583690Y+993917D02*
X-1583690Y+1035923D01*
D17*
X-1304960Y+144840D02*
X+415360Y+144840D01*
X+415360Y+2315160D01*
X-1304960Y+2315160D01*
X-1304960Y+144840D01*
D37*
X-277480Y+477062D02*
X-612120Y+477062D01*
X-612120Y+790786D01*
X-556347Y+853531D01*
X-500573Y+853531D01*
X-444800Y+790786D01*
X-444800Y+477062D01*
X-444800Y+790786D02*
X-389027Y+853531D01*
X-277480Y+853531D01*
X-612120Y+979021D02*
X-277480Y+979021D01*
X-277480Y+1355490D01*
X-500573Y+1606469D02*
X-612120Y+1731959D01*
X-277480Y+1731959D01*
D17*
X-1249680Y-1247140D02*
X+294640Y-1247140D01*
X+294640Y-210820D01*
X-1249680Y-210820D01*
X-1249680Y-1247140D01*
D28*
X+30480Y-728980D02*
X+30480Y-728980D01*
D38*
X-1122423Y-764710D02*
X-1102326Y-782574D01*
X-1021935Y-782574D01*
X-1001838Y-764710D01*
X-1001838Y-746845D01*
X-1021935Y-728980D01*
X-1102326Y-728980D01*
X-1122423Y-711116D01*
X-1122423Y-693251D01*
X-1102326Y-675387D01*
X-1021935Y-675387D01*
X-1001838Y-693251D01*
X-961642Y-782574D02*
X-961642Y-711116D01*
X-921447Y-675387D01*
X-881252Y-675387D01*
X-841057Y-711116D01*
X-841057Y-782574D01*
X-961642Y-746845D02*
X-841057Y-746845D01*
X-800861Y-675387D02*
X-800861Y-782574D01*
X-680276Y-782574D01*
X-619983Y-675387D02*
X-539592Y-675387D01*
X-579788Y-675387D02*
X-579788Y-782574D01*
X-619983Y-782574D02*
X-539592Y-782574D01*
X-479299Y-782574D02*
X-479299Y-675387D01*
X-398909Y-675387D01*
X-358714Y-711116D01*
X-358714Y-746845D01*
X-398909Y-782574D01*
X-479299Y-782574D01*
X-318518Y-782574D02*
X-318518Y-711116D01*
X-278323Y-675387D01*
X-238128Y-675387D01*
X-197933Y-711116D01*
X-197933Y-782574D01*
X-318518Y-746845D02*
X-197933Y-746845D01*
D17*
X-4838700Y-1701800D02*
X+759460Y-1701800D01*
X+759460Y+2705100D01*
X-4838700Y+2705100D01*
X-4838700Y-1701800D01*
M02*
